<?xml version="1.0" encoding="UTF-8"?><svg xmlns="http://www.w3.org/2000/svg" xmlns:xlink="http://www.w3.org/1999/xlink" viewBox="0 0 399.31 396.08"><defs><style>.cls-1,.cls-2,.cls-3,.cls-4,.cls-5,.cls-6{fill:none;}.cls-2,.cls-3,.cls-7,.cls-4,.cls-5,.cls-6,.cls-8{stroke-miterlimit:10;}.cls-2,.cls-4{stroke-linecap:square;}.cls-2,.cls-4,.cls-5,.cls-6,.cls-8{stroke:#1d1d1b;}.cls-3{opacity:0;stroke:#000;}.cls-9,.cls-10,.cls-11{fill:#1d1d1b;}.cls-7{fill:#ededed;stroke:#575756;}.cls-12{clip-path:url(#clippath-11);}.cls-13{clip-path:url(#clippath-10);}.cls-14{clip-path:url(#clippath-1);}.cls-15{clip-path:url(#clippath-4);}.cls-16{clip-path:url(#clippath-2);}.cls-17{clip-path:url(#clippath-7);}.cls-18{clip-path:url(#clippath-6);}.cls-19{clip-path:url(#clippath-9);}.cls-20{clip-path:url(#clippath-8);}.cls-21{clip-path:url(#clippath-5);}.cls-22,.cls-8{fill:#fff;}.cls-4{stroke-dasharray:9.76 9.76;}.cls-5{stroke-dasharray:6.41 6.41;}.cls-23{letter-spacing:-.11em;}.cls-24{letter-spacing:-.02em;}.cls-25{letter-spacing:-.03em;}.cls-10{font-size:18px;}.cls-10,.cls-11{font-family:HelveticaNeue, 'Helvetica Neue';}.cls-11{font-size:15px;}</style><clipPath id="clippath-1"><rect class="cls-1" x="261.56" y="238.98" width="23" height="18.8"/></clipPath><clipPath id="clippath-2"><rect class="cls-1" x="154.26" y="100.18" width="19" height="17"/></clipPath><clipPath id="clippath-4"><rect class="cls-1" x="260.43" y="327.02" width="24.14" height="24"/></clipPath><clipPath id="clippath-5"><rect class="cls-1" x="34.26" y="239.38" width="23" height="15"/></clipPath><clipPath id="clippath-6"><rect class="cls-1" x="50.25" y="85.46" width="19" height="15"/></clipPath><clipPath id="clippath-7"><rect class="cls-1" x="13.76" y="85.46" width="17" height="15"/></clipPath><clipPath id="clippath-8"><rect class="cls-1" x="136.84" y="59.97" width="113" height="19"/></clipPath><clipPath id="clippath-9"><rect class="cls-1" x="226.12" y="289.44" width="10" height="17"/></clipPath><clipPath id="clippath-10"><rect class="cls-1" x="310.34" y="290.11" width="10" height="17"/></clipPath><clipPath id="clippath-11"><rect class="cls-1" x="284.27" y="85.46" width="17" height="15"/></clipPath></defs><g id="Base"><rect class="cls-22" width="399.31" height="396.08" rx="12" ry="12"/></g><g id="Components"><rect class="cls-8" x="247.24" y="224.88" width="46.99" height="46.99"/><polygon class="cls-3" points="270.73 248.38 270.73 248.38 270.73 248.38 270.73 248.38 270.73 248.38 270.73 248.38 270.73 248.38 270.73 248.38 270.73 248.38 270.73 248.38 270.73 248.38 270.73 248.38 270.73 248.38 270.73 248.38 270.73 248.38 270.73 248.38 270.73 248.38 270.73 248.38 270.73 248.38 270.73 248.38 270.73 248.38 270.73 248.38 270.73 248.38 270.73 248.38 270.73 248.38 270.73 248.38 270.73 248.38 270.73 248.38 270.73 248.38 270.73 248.38 270.73 248.38 270.73 248.38 270.73 248.38 270.73 248.38 270.73 248.38 270.73 248.38 270.73 248.38 270.73 248.38 270.73 248.38 270.73 248.38 270.73 248.38 270.73 248.38 270.73 248.38 270.73 248.38 270.73 248.38 270.73 248.38 270.73 248.38 270.73 248.38 270.73 248.38 270.73 248.38 270.73 248.38 270.73 248.38 270.73 248.38 270.73 248.38 270.73 248.38 270.73 248.38 270.73 248.38 270.73 248.38 270.73 248.38 270.73 248.38 270.73 248.38 270.73 248.38 270.73 248.38 270.73 248.38 270.73 248.38 270.73 248.38 270.73 248.38 270.73 248.38 270.73 248.38 270.73 248.38 270.73 248.38 270.73 248.38 270.73 248.38 270.73 248.38 270.73 248.38 270.73 248.38 270.73 248.38 270.73 248.38 270.73 248.38 270.73 248.38 270.73 248.38 270.73 248.38 270.73 248.38 270.73 248.38 270.73 248.38 270.73 248.38 270.73 248.38"/><polygon class="cls-3" points="270.61 250.66 270.61 250.66 270.61 250.66 270.61 250.66 270.61 250.66 270.61 250.66 270.61 250.66 270.61 250.66 270.61 250.66 270.61 250.66 270.61 250.66 270.61 250.66 270.61 250.66 270.61 250.66 270.61 250.66 270.61 250.66 270.61 250.66 270.61 250.66 270.61 250.66 270.61 250.66 270.61 250.66 270.61 250.66 270.61 250.66 270.61 250.66 270.61 250.66 270.61 250.66 270.61 250.66 270.61 250.66 270.61 250.66 270.61 250.66 270.61 250.66 270.61 250.66 270.61 250.66 270.61 250.66 270.61 250.66 270.61 250.66 270.61 250.66 270.61 250.66 270.61 250.66 270.61 250.66 270.61 250.66 270.61 250.66 270.61 250.66 270.61 250.66 270.61 250.66 270.61 250.66 270.61 250.66 270.61 250.66 270.61 250.66 270.61 250.66 270.61 250.66 270.61 250.66 270.61 250.66 270.61 250.66 270.61 250.66 270.61 250.66 270.61 250.66 270.61 250.66 270.61 250.66 270.61 250.66 270.61 250.66 270.61 250.66 270.61 250.66 270.61 250.66 270.61 250.66 270.61 250.66 270.61 250.66 270.61 250.66 270.61 250.66 270.61 250.66 270.61 250.66 270.61 250.66 270.61 250.66 270.61 250.66 270.61 250.66 270.61 250.66 270.61 250.66 270.61 250.66 270.61 250.66 270.61 250.66 270.61 250.66 270.61 250.66 270.61 250.66 270.61 250.66 270.61 250.66 270.61 250.66 270.61 250.66"/><g class="cls-14"><path d="M267.12,251.72c-.25,0-.82,0-.82-.77,0-.72.68-1.43,1.43-1.43s1.09.43,1.09,1.52c0,.27-.02.29-.2.36-.46.2-1,.32-1.5.32M266.01,251.53c-1.39-.55-2-1.95-2-3.56,0-1.23.46-3.77,1.82-5.7,1.3-1.82,2.99-2.65,4.29-2.65,1.79,0,3.09,1.4,3.09,3.79,0,1.79-.91,5.97-3.92,7.65-.09-.62-.27-1.93-1.57-1.93-.95,0-1.82.9-1.82,1.82,0,.36.11.55.11.57ZM269.39,251.67c2.77-1.05,5.4-4.24,5.4-7.69,0-2.88-1.9-4.81-4.56-4.81-3.86,0-7.8,4.06-7.8,8.23,0,2.97,2,4.78,4.58,4.78.45,0,1.05-.07,1.75-.27-.07,1.11-.07,1.14-.07,1.38,0,.57,0,1.97,1.48,1.97,2.13,0,2.99-3.27,2.99-3.47,0-.12-.12-.18-.2-.18-.14,0-.18.09-.21.2-.43,1.27-1.47,1.72-2.09,1.72-.82,0-1.09-.48-1.27-1.84Z"/><path d="M281.09,249.29c.96.04,1.87.56,1.87,1.75,0,1.37-1.08,3.05-3.11,3.22l1.24-4.97M279.41,254.27c-.97-.05-1.85-.58-1.85-1.75,0-1.25.95-3.02,3.1-3.22l-1.24,4.97ZM281.92,245.94c0-.16-.15-.16-.21-.16-.19,0-.2.06-.25.28l-.71,2.87c-2.22.1-4.11,1.69-4.11,3.37,0,1.42,1.29,2.27,2.68,2.32-.1.39-.19.79-.29,1.18-.15.59-.26,1.05-.26,1.09,0,.15.16.15.2.15.19,0,.2-.04.26-.3l.53-2.11c2.14-.09,4.11-1.67,4.11-3.37,0-1.32-1.15-2.26-2.68-2.32l.74-3Z"/></g><ellipse class="cls-7" cx="163.76" cy="172.2" rx="44.61" ry="15.72"/><polyline class="cls-7" points="119.15 172.2 119.15 108.68 208.37 108.68 208.37 172.2"/><path class="cls-7" d="M208.37,152.41c0,8.68-19.97,15.72-44.61,15.72s-44.61-7.04-44.61-15.72"/><path class="cls-7" d="M208.37,130.54c0,8.68-19.97,15.72-44.61,15.72s-44.61-7.04-44.61-15.72"/><ellipse class="cls-7" cx="163.76" cy="108.68" rx="44.61" ry="15.72"/><g class="cls-16"><path d="M159.74,115.26c2.72-6.65,3.22-10.8,3.55-13.66,1.6,0,7.7,0,7.7,5.25,0,4.67-4.2,8.42-9.97,8.42h-1.29M159.63,116.58c5.55,0,13.4-4.24,13.4-10.75,0-2.12-1-3.46-2.17-4.2-2.05-1.33-4.24-1.33-6.51-1.33-2.05,0-3.46,0-5.46.86-3.17,1.41-3.62,3.39-3.62,3.58,0,.14.1.19.24.19.38,0,.93-.33,1.12-.45.5-.33.57-.48.72-.93.33-.95,1-1.79,4-1.93-.38,4.98-1.6,9.54-3.27,13.71-.88.31-1.45.86-1.45,1.1,0,.14.02.17.55.17h2.46Z"/></g><rect class="cls-8" x="100.98" y="9.72" width="125.57" height="46.99"/><text class="cls-10" transform="translate(113.41 38.83)"><tspan x="0" y="0">Envi</tspan><tspan class="cls-24" x="34" y="0">r</tspan><tspan x="39.67" y="0">onment</tspan></text><rect class="cls-8" x="248.79" y="314.24" width="46.99" height="46.99"/><polygon class="cls-3" points="272.29 337.74 272.29 337.73 272.29 337.73 272.29 337.73 272.29 337.74 272.29 337.74 272.29 337.74 272.29 337.73 272.29 337.73 272.29 337.74 272.29 337.73 272.29 337.74 272.29 337.74 272.29 337.73 272.29 337.74 272.29 337.73 272.29 337.73 272.29 337.73 272.29 337.74 272.29 337.73 272.29 337.74 272.29 337.74 272.29 337.74 272.29 337.73 272.29 337.74 272.29 337.74 272.29 337.74 272.29 337.73 272.29 337.74 272.29 337.74 272.29 337.73 272.29 337.74 272.29 337.73 272.29 337.74 272.29 337.74 272.29 337.73 272.29 337.74 272.29 337.74 272.29 337.74 272.29 337.73 272.29 337.74 272.29 337.73 272.29 337.73 272.29 337.73 272.29 337.74 272.29 337.74 272.29 337.74 272.29 337.73 272.29 337.74 272.29 337.74 272.29 337.74 272.29 337.74 272.29 337.74 272.29 337.73 272.29 337.74 272.29 337.73 272.29 337.74 272.29 337.73 272.29 337.74 272.29 337.73 272.29 337.74 272.29 337.74 272.29 337.74 272.29 337.73 272.29 337.74 272.29 337.73 272.29 337.74 272.29 337.74 272.29 337.73 272.29 337.74 272.29 337.74 272.29 337.74 272.29 337.73 272.29 337.74 272.29 337.74 272.29 337.74 272.29 337.74 272.29 337.74 272.29 337.74 272.29 337.73 272.29 337.73 272.29 337.74 272.29 337.74 272.29 337.74 272.29 337.74 272.29 337.73 272.29 337.74"/><polygon class="cls-3" points="272.17 340.02 272.17 340.02 272.17 340.02 272.17 340.02 272.17 340.02 272.17 340.02 272.17 340.02 272.17 340.02 272.17 340.02 272.17 340.02 272.17 340.02 272.17 340.02 272.17 340.02 272.17 340.02 272.17 340.02 272.17 340.02 272.17 340.02 272.17 340.02 272.17 340.02 272.17 340.02 272.17 340.02 272.17 340.02 272.17 340.02 272.17 340.02 272.17 340.02 272.17 340.02 272.17 340.02 272.17 340.02 272.17 340.02 272.17 340.02 272.17 340.02 272.17 340.02 272.17 340.02 272.17 340.02 272.17 340.02 272.17 340.02 272.17 340.02 272.17 340.02 272.17 340.02 272.17 340.02 272.17 340.02 272.17 340.02 272.17 340.02 272.17 340.02 272.17 340.02 272.17 340.02 272.17 340.02 272.17 340.02 272.17 340.02 272.17 340.02 272.17 340.02 272.17 340.02 272.17 340.02 272.17 340.02 272.17 340.02 272.17 340.02 272.17 340.02 272.17 340.02 272.17 340.02 272.17 340.02 272.17 340.02 272.17 340.02 272.17 340.02 272.17 340.02 272.17 340.02 272.17 340.02 272.17 340.02 272.17 340.02 272.17 340.02 272.17 340.02 272.17 340.02 272.17 340.02 272.17 340.02 272.17 340.02 272.17 340.02 272.17 340.02 272.17 340.02 272.17 340.02 272.17 340.02 272.17 340.02 272.17 340.02 272.17 340.02 272.17 340.02 272.17 340.02 272.17 340.02 272.17 340.02 272.17 340.02"/><polygon class="cls-3" points="273.12 340.62 273.12 340.62 273.12 340.62 273.12 340.62 273.12 340.62 273.12 340.62 273.12 340.62 273.12 340.62 273.12 340.62 273.12 340.62 273.12 340.62 273.12 340.62 273.12 340.62 273.12 340.62 273.12 340.62 273.12 340.62 273.12 340.62 273.12 340.62 273.12 340.62 273.12 340.62 273.12 340.62 273.12 340.62 273.12 340.62 273.12 340.62 273.12 340.62 273.12 340.62 273.12 340.62 273.12 340.62 273.12 340.62 273.12 340.62 273.12 340.62 273.12 340.62 273.12 340.62 273.12 340.62 273.12 340.62 273.12 340.62 273.12 340.62 273.12 340.62 273.12 340.62 273.12 340.62 273.12 340.62 273.12 340.62 273.12 340.62 273.12 340.62 273.12 340.62 273.12 340.62 273.12 340.62 273.12 340.62 273.12 340.62 273.12 340.62 273.12 340.62 273.12 340.62 273.12 340.62 273.12 340.62 273.12 340.62 273.12 340.62 273.12 340.62 273.12 340.62 273.12 340.62 273.12 340.62 273.12 340.62 273.12 340.62 273.12 340.62 273.12 340.62 273.12 340.62 273.12 340.62 273.12 340.62 273.12 340.62 273.12 340.62 273.12 340.62 273.12 340.62 273.12 340.62 273.12 340.62 273.12 340.62 273.12 340.62 273.12 340.62 273.12 340.62 273.12 340.62 273.12 340.62 273.12 340.62 273.12 340.62 273.12 340.62 273.12 340.62 273.12 340.62 273.12 340.62 273.12 340.62 273.12 340.62 273.12 340.62"/><g class="cls-15"><path d="M265.89,343.37c-.25,0-.82,0-.82-.77,0-.72.68-1.43,1.43-1.43s1.09.43,1.09,1.52c0,.27-.02.29-.2.36-.46.2-1,.32-1.5.32M264.79,343.17c-1.39-.55-2-1.95-2-3.56,0-1.23.46-3.77,1.82-5.7,1.3-1.82,2.99-2.65,4.29-2.65,1.79,0,3.09,1.4,3.09,3.79,0,1.79-.91,5.97-3.92,7.65-.09-.62-.27-1.93-1.57-1.93-.95,0-1.82.9-1.82,1.83,0,.36.11.55.11.57ZM268.16,343.31c2.77-1.05,5.4-4.24,5.4-7.69,0-2.88-1.9-4.81-4.56-4.81-3.86,0-7.8,4.06-7.8,8.23,0,2.97,2,4.78,4.58,4.78.45,0,1.05-.07,1.75-.27-.07,1.11-.07,1.14-.07,1.38,0,.57,0,1.97,1.48,1.97,2.13,0,2.99-3.27,2.99-3.47,0-.12-.12-.18-.2-.18-.14,0-.18.09-.21.2-.43,1.27-1.47,1.72-2.09,1.72-.82,0-1.09-.48-1.27-1.84Z"/><path d="M280.62,328.44c.09-.36.11-.4.39-.43.06-.01.5-.01.75-.01.76,0,1.09,0,1.4.1.56.17.59.54.59.99,0,.2,0,.36-.09,1.01l-.02.14c0,.12.09.19.21.19.19,0,.21-.11.24-.31l.34-2.39c0-.18-.15-.18-.38-.18h-7.71c-.31,0-.34,0-.43.26l-.79,2.22c-.01.05-.06.16-.06.23,0,.05.03.18.21.18.16,0,.19-.06.26-.3.73-2,1.14-2.13,3.05-2.13h.52c.38,0,.39.01.39.12,0,.01,0,.07-.05.26l-1.65,6.59c-.11.46-.15.59-1.47.59-.45,0-.56,0-.56.28,0,.04.02.18.21.18.35,0,.73-.04,1.08-.04s.73-.01,1.08-.01.78,0,1.13.01c.34.01.71.04,1.05.04.1,0,.29,0,.29-.28,0-.18-.12-.18-.51-.18-.24,0-.49-.01-.73-.02-.43-.04-.45-.09-.45-.24,0-.09,0-.11.05-.29l1.65-6.58"/><path d="M279.86,342.73c.96.04,1.87.56,1.87,1.75,0,1.37-1.08,3.05-3.11,3.22l1.24-4.98M278.18,347.71c-.97-.05-1.85-.58-1.85-1.75,0-1.25.95-3.02,3.1-3.22l-1.24,4.98ZM280.7,339.39c0-.16-.15-.16-.21-.16-.19,0-.2.06-.25.27l-.71,2.87c-2.22.1-4.11,1.69-4.11,3.37,0,1.42,1.29,2.27,2.68,2.32-.1.39-.19.79-.29,1.18-.15.59-.26,1.05-.26,1.09,0,.15.16.15.2.15.19,0,.2-.04.26-.3l.52-2.11c2.14-.09,4.11-1.67,4.11-3.37,0-1.32-1.15-2.26-2.68-2.32l.74-3Z"/></g><rect class="cls-8" x="22.26" y="223.39" width="46.99" height="46.99"/><polygon class="cls-3" points="45.76 246.88 45.76 246.88 45.76 246.88 45.76 246.88 45.76 246.88 45.76 246.88 45.76 246.88 45.76 246.88 45.76 246.88 45.76 246.88 45.76 246.88 45.76 246.88 45.76 246.88 45.76 246.88 45.76 246.88 45.76 246.88 45.76 246.88 45.76 246.88 45.76 246.88 45.76 246.88 45.76 246.88 45.76 246.88 45.76 246.88 45.76 246.88 45.76 246.88 45.76 246.88 45.76 246.88 45.76 246.88 45.76 246.88 45.76 246.88 45.76 246.88 45.76 246.88 45.76 246.88 45.76 246.88 45.76 246.88 45.76 246.88 45.76 246.88 45.76 246.88 45.76 246.88 45.76 246.88 45.76 246.88 45.76 246.88 45.76 246.88 45.76 246.88 45.76 246.88 45.76 246.88 45.76 246.88 45.76 246.88 45.76 246.88 45.76 246.88 45.76 246.88 45.76 246.88 45.76 246.88 45.76 246.88 45.76 246.88 45.76 246.88 45.76 246.88 45.76 246.88 45.76 246.88 45.76 246.88 45.76 246.88 45.76 246.88 45.76 246.88 45.76 246.88 45.76 246.88 45.76 246.88 45.76 246.88 45.76 246.88 45.76 246.88 45.76 246.88 45.76 246.88 45.76 246.88 45.76 246.88 45.76 246.88 45.76 246.88 45.76 246.88 45.76 246.88 45.76 246.88 45.76 246.88 45.76 246.88 45.76 246.88 45.76 246.88 45.76 246.88 45.76 246.88 45.76 246.88 45.76 246.88 45.76 246.88"/><g class="cls-21"><path d="M40.77,241.69h2.7c-.79,3.53-1,4.55-1,6.15,0,.36,0,1,.19,1.81.24,1.05.5,1.19.86,1.19.48,0,.98-.43.98-.91,0-.14,0-.19-.14-.53-.69-1.72-.69-3.27-.69-3.93,0-1.26.17-2.55.43-3.79h2.72c.31,0,1.17,0,1.17-.81,0-.57-.5-.57-.95-.57h-7.99c-.53,0-1.43,0-2.48,1.12-.83.93-1.45,2.03-1.45,2.15,0,.02,0,.24.29.24.19,0,.24-.1.38-.29,1.17-1.84,2.55-1.84,3.03-1.84h1.36c-.76,2.88-2.05,5.77-3.05,7.94-.19.36-.19.4-.19.57,0,.45.38.64.69.64.72,0,.91-.67,1.19-1.55.33-1.1.33-1.14.64-2.34l1.33-5.27"/><path d="M54.85,248.65c-.47,1.83-.86,2.74-1.36,3.56-.52.88-1.19,1.66-1.93,1.66-.92,0-1.08-1.28-1.08-2.18,0-1.11.32-2.42.49-3.04h3.88M51.12,248.05c.86-3.63,2.3-5.23,3.29-5.23,1.08,0,1.08,1.87,1.08,2.19,0,.65-.13,1.63-.49,3.04h-3.88ZM56.75,245.99c0-1.76-.67-3.65-2.32-3.65-2.52,0-5.21,4.5-5.21,8.35,0,2,.77,3.65,2.32,3.65,2.55,0,5.21-4.59,5.21-8.36Z"/></g></g><g id="DataFlow"><g class="cls-18"><path d="M57.1,93.82c-.12.43-.12.48-.48.88-1.05,1.31-2.03,1.69-2.69,1.69-1.19,0-1.53-1.31-1.53-2.24,0-1.19.76-4.12,1.31-5.22.74-1.41,1.81-2.29,2.77-2.29,1.55,0,1.88,1.95,1.88,2.1s-.05.29-.07.41l-1.19,4.67M58.65,87.65c-.43-.88-1.12-1.53-2.19-1.53-2.79,0-5.75,3.5-5.75,6.99,0,2.24,1.31,3.81,3.17,3.81.48,0,1.67-.1,3.1-1.79.19,1,1.03,1.79,2.17,1.79.83,0,1.38-.55,1.76-1.31.4-.86.72-2.31.72-2.36,0-.24-.22-.24-.29-.24-.24,0-.26.1-.33.43-.41,1.55-.83,2.96-1.81,2.96-.64,0-.72-.62-.72-1.1,0-.52.05-.71.31-1.76.26-1,.31-1.24.53-2.15l.86-3.34c.17-.67.17-.72.17-.81,0-.4-.29-.64-.69-.64-.57,0-.93.52-1,1.05Z"/><path d="M66.59,93.62h1.71c.32,0,.54,0,.54-.37,0-.24-.22-.24-.5-.24h-1.6l.62-2.49c.02-.08.05-.17.05-.24,0-.3-.24-.54-.57-.54-.42,0-.67.29-.79.72-.12.42.1-.39-.64,2.54h-1.72c-.32,0-.54,0-.54.37,0,.23.2.23.5.23h1.6l-.99,3.97c-.1.42-.25,1.03-.25,1.24,0,.99.84,1.6,1.8,1.6,1.87,0,2.92-2.35,2.92-2.57s-.22-.22-.27-.22c-.2,0-.22.03-.35.32-.47,1.06-1.33,2-2.25,2-.35,0-.59-.22-.59-.82,0-.17.07-.52.1-.69l1.21-4.83"/></g><line class="cls-2" x1="279.4" y1="216.02" x2="279.4" y2="33.22"/><polygon class="cls-9" points="282.31 214.04 279.41 224.88 276.5 214.04 282.31 214.04"/><g class="cls-17"><path d="M21.88,87.74c-.67.02-1.14.55-1.14,1.07,0,.33.21.69.74.69s1.1-.41,1.1-1.34c0-1.07-1.02-2.05-2.84-2.05-3.15,0-4.03,2.43-4.03,3.48,0,1.86,1.76,2.22,2.46,2.36,1.24.24,2.48.5,2.48,1.81,0,.62-.55,2.62-3.41,2.62-.33,0-2.17,0-2.72-1.26.91.12,1.5-.6,1.5-1.26,0-.55-.38-.83-.88-.83-.62,0-1.34.5-1.34,1.57,0,1.36,1.36,2.31,3.41,2.31,3.86,0,4.79-2.88,4.79-3.96,0-.86-.45-1.45-.74-1.74-.64-.67-1.33-.79-2.38-1-.86-.19-1.81-.36-1.81-1.43,0-.69.57-2.15,2.67-2.15.6,0,1.79.17,2.15,1.1"/><path d="M27.9,93.62h1.71c.32,0,.54,0,.54-.37,0-.24-.22-.24-.5-.24h-1.6l.62-2.49c.02-.08.05-.17.05-.24,0-.3-.24-.54-.57-.54-.42,0-.67.29-.79.72-.12.42.1-.39-.64,2.54h-1.72c-.32,0-.54,0-.54.37,0,.23.2.23.5.23h1.6l-.99,3.97c-.1.42-.25,1.03-.25,1.24,0,.99.84,1.6,1.8,1.6,1.87,0,2.93-2.35,2.93-2.57s-.22-.22-.27-.22c-.2,0-.22.03-.35.32-.47,1.06-1.33,2-2.25,2-.35,0-.59-.22-.59-.82,0-.17.07-.52.1-.69l1.21-4.83"/></g><text class="cls-11" transform="translate(190.56 209.11)"><tspan x="0" y="0">MiniBatch</tspan></text><text class="cls-10" transform="translate(249.58 290.12)"><tspan x="0" y="0">Critic</tspan></text><g class="cls-20"><path d="M141.76,78.06c0-.05,0-.09-.3-.39-2.23-2.25-2.81-5.63-2.81-8.37,0-3.11.68-6.22,2.88-8.46.23-.21.23-.25.23-.3,0-.12-.07-.18-.18-.18-.18,0-1.79,1.22-2.84,3.49-.91,1.97-1.13,3.95-1.13,5.45,0,1.4.2,3.56,1.18,5.58,1.07,2.2,2.61,3.36,2.79,3.36.11,0,.18-.05.18-.18"/><path d="M149.83,67.08c-.5.02-.86.41-.86.8,0,.25.16.52.55.52s.82-.3.82-1c0-.8-.77-1.54-2.13-1.54-2.36,0-3.02,1.82-3.02,2.61,0,1.39,1.32,1.66,1.84,1.77.93.18,1.86.38,1.86,1.36,0,.47-.41,1.97-2.56,1.97-.25,0-1.63,0-2.04-.95.68.09,1.13-.45,1.13-.95,0-.41-.29-.62-.66-.62-.47,0-1,.38-1,1.18,0,1.02,1.02,1.73,2.56,1.73,2.9,0,3.59-2.16,3.59-2.97,0-.64-.34-1.09-.55-1.3-.48-.5-1-.59-1.79-.75-.64-.14-1.36-.27-1.36-1.07,0-.52.43-1.61,2-1.61.45,0,1.34.12,1.61.82"/><path d="M154.32,71.52h1.28c.24,0,.4,0,.4-.27,0-.18-.16-.18-.38-.18h-1.19l.46-1.85c.01-.06.04-.12.04-.18,0-.23-.17-.4-.43-.4-.31,0-.5.21-.59.54-.09.31.08-.29-.48,1.89h-1.28c-.24,0-.4,0-.4.28,0,.17.15.17.38.17h1.19l-.74,2.96c-.08.31-.19.76-.19.93,0,.74.63,1.19,1.34,1.19,1.39,0,2.18-1.75,2.18-1.92s-.16-.16-.2-.16c-.15,0-.16.03-.26.24-.35.79-.99,1.49-1.68,1.49-.26,0-.44-.16-.44-.61,0-.13.05-.39.08-.51l.9-3.6"/><path d="M161.17,73.75c0-1.18-.45-1.88-1.14-1.88-.59,0-.95.45-.95.95s.36.95.95.95c.21,0,.45-.07.62-.23.05-.04.07-.05.09-.05.02,0,.04.02.04.27,0,1.32-.62,2.4-1.22,2.99-.2.2-.2.23-.2.29,0,.12.09.2.18.2.2,0,1.63-1.38,1.63-3.47"/><path d="M171.04,71.64c-.09.32-.09.36-.36.66-.79.98-1.52,1.27-2.02,1.27-.9,0-1.15-.98-1.15-1.68,0-.89.57-3.09.98-3.92.55-1.05,1.36-1.72,2.07-1.72,1.16,0,1.41,1.47,1.41,1.57s-.04.21-.05.3l-.89,3.5M172.21,67.01c-.32-.66-.84-1.14-1.64-1.14-2.09,0-4.31,2.63-4.31,5.24,0,1.68.98,2.86,2.38,2.86.36,0,1.25-.07,2.32-1.34.14.75.77,1.34,1.63,1.34.62,0,1.04-.41,1.32-.98.3-.64.54-1.73.54-1.77,0-.18-.16-.18-.21-.18-.18,0-.2.07-.25.32-.3,1.16-.62,2.22-1.36,2.22-.48,0-.54-.46-.54-.82,0-.39.04-.54.23-1.32.2-.75.23-.93.39-1.61l.64-2.5c.12-.5.12-.54.12-.61,0-.3-.21-.48-.52-.48-.43,0-.7.39-.75.79Z"/><path d="M178.12,71.52h1.28c.24,0,.4,0,.4-.27,0-.18-.16-.18-.38-.18h-1.19l.46-1.85c.01-.06.04-.12.04-.18,0-.23-.17-.4-.43-.4-.31,0-.5.21-.59.54-.09.31.08-.29-.48,1.89h-1.28c-.24,0-.4,0-.4.28,0,.17.15.17.38.17h1.19l-.74,2.96c-.08.31-.19.76-.19.93,0,.74.63,1.19,1.34,1.19,1.39,0,2.18-1.75,2.18-1.92s-.16-.16-.2-.16c-.15,0-.16.03-.26.24-.35.79-.99,1.49-1.68,1.49-.26,0-.44-.16-.44-.61,0-.13.05-.39.08-.51l.9-3.6"/><path d="M184.97,73.75c0-1.18-.45-1.88-1.14-1.88-.59,0-.95.45-.95.95s.36.95.95.95c.21,0,.45-.07.62-.23.05-.04.07-.05.09-.05.02,0,.04.02.04.27,0,1.32-.62,2.4-1.22,2.99-.2.2-.2.23-.2.29,0,.12.09.2.18.2.2,0,1.63-1.38,1.63-3.47"/><path d="M190.91,72.71c-.05.27-.16.68-.16.77,0,.32.25.48.52.48.21,0,.54-.14.66-.5.04-.07.64-2.5.72-2.82.14-.59.47-1.84.57-2.32.07-.23.57-1.07,1-1.47.14-.12.66-.59,1.43-.59.46,0,.73.21.75.21-.54.09-.93.52-.93.98,0,.29.2.63.68.63s.98-.41.98-1.05-.57-1.16-1.48-1.16c-1.16,0-1.95.88-2.29,1.38-.14-.8-.79-1.38-1.63-1.38s-1.16.7-1.32,1.02c-.32.61-.55,1.68-.55,1.73,0,.18.18.18.21.18.18,0,.2-.02.3-.41.3-1.27.66-2.13,1.3-2.13.3,0,.55.14.55.82,0,.38-.05.57-.29,1.5l-1.04,4.13"/><path d="M200.52,71.52h1.28c.24,0,.4,0,.4-.27,0-.18-.16-.18-.38-.18h-1.19l.46-1.85c.01-.06.04-.12.04-.18,0-.23-.18-.4-.43-.4-.31,0-.5.21-.59.54-.09.31.08-.29-.47,1.89h-1.28c-.24,0-.4,0-.4.28,0,.17.15.17.38.17h1.19l-.74,2.96c-.08.31-.19.76-.19.93,0,.74.63,1.19,1.34,1.19,1.39,0,2.18-1.75,2.18-1.92s-.16-.16-.2-.16c-.15,0-.16.03-.26.24-.35.79-.99,1.49-1.68,1.49-.26,0-.44-.16-.44-.61,0-.13.05-.39.08-.51l.9-3.6"/><path d="M207.37,73.75c0-1.18-.45-1.88-1.14-1.88-.59,0-.95.45-.95.95s.36.95.95.95c.21,0,.45-.07.62-.23.05-.04.07-.05.09-.05.02,0,.04.02.04.27,0,1.32-.62,2.4-1.22,2.99-.2.2-.2.23-.2.29,0,.12.09.2.18.2.2,0,1.63-1.38,1.63-3.47"/><path d="M218.63,67.08c-.5.02-.86.41-.86.8,0,.25.16.52.55.52s.82-.3.82-1c0-.8-.77-1.54-2.13-1.54-2.36,0-3.02,1.82-3.02,2.61,0,1.39,1.32,1.66,1.84,1.77.93.18,1.86.38,1.86,1.36,0,.47-.41,1.97-2.56,1.97-.25,0-1.63,0-2.04-.95.68.09,1.13-.45,1.13-.95,0-.41-.29-.62-.66-.62-.47,0-1,.38-1,1.18,0,1.02,1.02,1.73,2.56,1.73,2.9,0,3.59-2.16,3.59-2.97,0-.64-.34-1.09-.55-1.3-.48-.5-1-.59-1.79-.75-.64-.14-1.36-.27-1.36-1.07,0-.52.43-1.61,2-1.61.45,0,1.34.12,1.61.82"/><path d="M223.12,71.52h1.28c.24,0,.4,0,.4-.27,0-.18-.16-.18-.38-.18h-1.19l.46-1.85c.01-.06.04-.12.04-.18,0-.23-.18-.4-.43-.4-.31,0-.5.21-.59.54-.09.31.08-.29-.47,1.89h-1.28c-.24,0-.4,0-.4.28,0,.17.15.17.38.17h1.19l-.74,2.96c-.08.31-.19.76-.19.93,0,.74.63,1.19,1.34,1.19,1.39,0,2.18-1.75,2.18-1.92s-.16-.16-.2-.16c-.15,0-.16.03-.26.24-.35.79-.99,1.49-1.68,1.49-.26,0-.44-.16-.44-.61,0-.13.05-.39.08-.51l.9-3.6"/><path d="M231.34,73.63h3.84c.16,0,.46,0,.46-.3s-.29-.31-.46-.31h-3.84v-3.85c0-.16,0-.46-.3-.46s-.31.29-.31.46v3.85h-3.85c-.16,0-.46,0-.46.3s.29.31.46.31h3.85v3.85c0,.16,0,.46.3.46s.31-.29.31-.46v-3.85"/><path d="M240.73,68.5c0-.34-.03-.35-.38-.35-.8.79-1.94.8-2.46.8v.45c.3,0,1.13,0,1.82-.35v6.39c0,.41,0,.58-1.25.58h-.48v.45c.23-.01,1.77-.05,2.23-.05.39,0,1.97.04,2.24.05v-.45h-.48c-1.25,0-1.25-.16-1.25-.58v-6.94"/><path d="M249.7,69.3c0-1.4-.2-3.56-1.18-5.58-1.07-2.2-2.61-3.36-2.79-3.36-.11,0-.18.07-.18.18,0,.05,0,.09.34.41,1.75,1.77,2.77,4.61,2.77,8.35,0,3.06-.66,6.2-2.88,8.46-.23.21-.23.25-.23.3,0,.11.07.18.18.18.18,0,1.79-1.22,2.84-3.49.91-1.97,1.13-3.95,1.13-5.45"/></g><text class="cls-10" transform="translate(248.55 379.31)"><tspan class="cls-23" x="0" y="0">T</tspan><tspan x="8.33" y="0">a</tspan><tspan class="cls-25" x="18" y="0">r</tspan><tspan x="23.49" y="0">get</tspan></text><line class="cls-6" x1="304.27" y1="336.62" x2="308.77" y2="336.62"/><line class="cls-6" x1="318.26" y1="336.62" x2="322.76" y2="336.62"/><polygon class="cls-9" points="306.25 339.52 295.41 336.62 306.25 333.71 306.25 339.52"/><line class="cls-6" x1="294.53" y1="259.23" x2="299.03" y2="259.23"/><line class="cls-5" x1="305.44" y1="259.23" x2="315.06" y2="259.23"/><line class="cls-6" x1="318.26" y1="259.23" x2="322.76" y2="259.23"/><line class="cls-2" x1="322.76" y1="336.62" x2="322.76" y2="332.12"/><line class="cls-4" x1="322.76" y1="322.35" x2="322.76" y2="268.64"/><line class="cls-2" x1="322.76" y1="263.76" x2="322.76" y2="259.26"/><line class="cls-6" x1="248.58" y1="336.02" x2="223.44" y2="336.02"/><line class="cls-6" x1="239.1" y1="261.21" x2="223.44" y2="261.21"/><polygon class="cls-9" points="237.12 258.3 247.96 261.2 237.12 264.11 237.12 258.3"/><line class="cls-2" x1="223.44" y1="336.02" x2="223.44" y2="261.21"/><polygon class="cls-3" points="230.91 298.42 230.91 298.42 230.91 298.42 230.91 298.42 230.91 298.42 230.91 298.42 230.91 298.42 230.91 298.42 230.91 298.42 230.91 298.42 230.91 298.42 230.91 298.42 230.91 298.42 230.91 298.42 230.91 298.42 230.91 298.42 230.91 298.42 230.91 298.42 230.91 298.42 230.91 298.42 230.91 298.42 230.91 298.42 230.91 298.42 230.91 298.42 230.91 298.42 230.91 298.42 230.91 298.42 230.91 298.42 230.91 298.42 230.91 298.42 230.91 298.42 230.91 298.42 230.91 298.42 230.91 298.42 230.91 298.42 230.91 298.42 230.91 298.42 230.91 298.42 230.91 298.42 230.91 298.42 230.91 298.42 230.91 298.42 230.91 298.42 230.91 298.42 230.91 298.42 230.91 298.42 230.91 298.42 230.91 298.42 230.91 298.42 230.91 298.42 230.91 298.42 230.91 298.42 230.91 298.42 230.91 298.42 230.91 298.42 230.91 298.42 230.91 298.42 230.91 298.42 230.91 298.42 230.91 298.42 230.91 298.42 230.91 298.42 230.91 298.42 230.91 298.42 230.91 298.42 230.91 298.42 230.91 298.42 230.91 298.42 230.91 298.42 230.91 298.42 230.91 298.42 230.91 298.42 230.91 298.42 230.91 298.42 230.91 298.42 230.91 298.42 230.91 298.42 230.91 298.42 230.91 298.42 230.91 298.42 230.91 298.42 230.91 298.42 230.91 298.42 230.91 298.42 230.91 298.42 230.91 298.42"/><g class="cls-19"><path d="M232.13,294.71c1.36.07,2.38.89,2.38,2.47,0,2.11-1.54,4.67-4.22,4.88l1.84-7.35M229.82,302.06c-1.07-.05-2.36-.68-2.36-2.47,0-2.15,1.54-4.65,4.2-4.88l-1.84,7.35ZM233.24,290.26s.05-.23.05-.25c0-.02,0-.18-.21-.18-.18,0-.2.05-.27.36l-1.04,4.13c-2.84.09-5.47,2.47-5.47,4.9,0,1.7,1.25,3.11,3.43,3.24-.14.55-.27,1.13-.41,1.68-.22.84-.39,1.52-.39,1.57,0,.18.12.2.21.2s.12-.02.18-.07c.04-.04.14-.46.2-.72l.68-2.66c2.88-.09,5.47-2.5,5.47-4.9,0-1.41-.95-3.06-3.43-3.24l1-4.06Z"/></g><g class="cls-13"><path d="M316.35,295.39c1.36.07,2.38.89,2.38,2.47,0,2.11-1.54,4.67-4.22,4.88l1.84-7.35M314.04,302.74c-1.07-.05-2.36-.68-2.36-2.47,0-2.15,1.54-4.65,4.2-4.88l-1.84,7.35ZM317.46,290.93s.05-.23.05-.25c0-.02,0-.18-.21-.18-.18,0-.2.05-.27.36l-1.04,4.13c-2.84.09-5.47,2.47-5.47,4.9,0,1.7,1.25,3.11,3.43,3.24-.14.55-.27,1.13-.41,1.68-.22.84-.39,1.52-.39,1.57,0,.18.12.2.21.2s.12-.02.18-.07c.04-.04.14-.46.2-.72l.68-2.66c2.88-.09,5.47-2.5,5.47-4.9,0-1.41-.95-3.06-3.43-3.24l1-4.06Z"/></g><text class="cls-10" transform="translate(327.38 293.47)"><tspan x="0" y="0">Periodic</tspan><tspan x="0" y="21.6">Copy</tspan></text><line class="cls-2" x1="163.76" y1="84.1" x2="163.76" y2="56.72"/><polygon class="cls-9" points="166.67 82.12 163.76 92.96 160.86 82.12 166.67 82.12"/><line class="cls-2" x1="261.56" y1="216.02" x2="261.56" y2="146.26"/><polygon class="cls-9" points="264.46 214.04 261.56 224.88 258.65 214.04 264.46 214.04"/><line class="cls-2" x1="57.26" y1="214.53" x2="57.26" y2="146.26"/><polygon class="cls-9" points="60.16 212.55 57.26 223.39 54.35 212.55 60.16 212.55"/><line class="cls-2" x1="57.26" y1="146.26" x2="119.15" y2="146.26"/><line class="cls-2" x1="261.56" y1="146.26" x2="208.37" y2="146.26"/><line class="cls-6" x1="78.11" y1="246.88" x2="246.93" y2="246.88"/><polygon class="cls-9" points="80.09 249.79 69.25 246.88 80.09 243.98 80.09 249.79"/><line class="cls-6" x1="91.51" y1="36.74" x2="45.76" y2="36.74"/><polygon class="cls-9" points="89.53 33.83 100.37 36.74 89.53 39.64 89.53 33.83"/><line class="cls-2" x1="45.76" y1="223.39" x2="45.76" y2="36.74"/><line class="cls-6" x1="100.98" y1="26.35" x2="34.26" y2="26.35"/><line class="cls-2" x1="34.26" y1="214.53" x2="34.26" y2="26.35"/><polygon class="cls-9" points="37.16 212.55 34.26 223.39 31.35 212.55 37.16 212.55"/><text class="cls-11" transform="translate(64.02 209.27)"><tspan x="0" y="0">MiniBatch</tspan></text><line class="cls-6" x1="279.4" y1="33.22" x2="227.07" y2="33.22"/><g class="cls-12"><path d="M292.39,87.74c-.67.02-1.14.55-1.14,1.07,0,.33.21.69.74.69s1.1-.41,1.1-1.34c0-1.07-1.02-2.05-2.84-2.05-3.15,0-4.03,2.43-4.03,3.48,0,1.86,1.76,2.22,2.46,2.36,1.24.24,2.48.5,2.48,1.81,0,.62-.55,2.62-3.41,2.62-.33,0-2.17,0-2.72-1.26.91.12,1.5-.6,1.5-1.26,0-.55-.38-.83-.88-.83-.62,0-1.34.5-1.34,1.57,0,1.36,1.36,2.31,3.41,2.31,3.86,0,4.79-2.88,4.79-3.96,0-.86-.45-1.45-.74-1.74-.64-.67-1.33-.79-2.38-1-.86-.19-1.81-.36-1.81-1.43,0-.69.57-2.15,2.67-2.15.6,0,1.79.17,2.15,1.1"/><path d="M298.4,93.62h1.71c.32,0,.54,0,.54-.37,0-.24-.22-.24-.5-.24h-1.6l.62-2.49c.02-.08.05-.17.05-.24,0-.3-.24-.54-.57-.54-.42,0-.67.29-.79.72-.12.42.1-.39-.64,2.54h-1.72c-.32,0-.54,0-.54.37,0,.23.2.23.5.23h1.6l-.99,3.97c-.1.42-.25,1.03-.25,1.24,0,.99.84,1.6,1.8,1.6,1.87,0,2.93-2.35,2.93-2.57s-.22-.22-.27-.22c-.2,0-.22.03-.35.32-.47,1.06-1.33,2-2.25,2-.35,0-.59-.22-.59-.82,0-.17.07-.52.1-.69l1.21-4.83"/></g><text class="cls-11" transform="translate(125.65 241.23)"><tspan x="0" y="0">Advantage</tspan></text></g></svg>