<?xml version="1.0" encoding="UTF-8"?>
<svg xmlns="http://www.w3.org/2000/svg" xmlns:xlink="http://www.w3.org/1999/xlink" version="1.1" viewBox="0 0 266.5 246.5">
  <!-- Generator: Adobe Illustrator 29.2.1, SVG Export Plug-In . SVG Version: 2.1.0 Build 116)  -->
  <defs>
    <style>
      .st0, .st1, .st2, .st3 {
        fill: none;
      }

      .st1 {
        stroke-linecap: square;
      }

      .st1, .st2, .st4, .st3, .st5 {
        stroke-miterlimit: 10;
      }

      .st1, .st3, .st5 {
        stroke: #1d1d1b;
      }

      .st2 {
        opacity: 0;
        stroke: #000;
      }

      .st6, .st7 {
        fill: #1d1d1b;
      }

      .st4 {
        fill: #ededed;
        stroke: #575756;
      }

      .st8 {
        clip-path: url(#clippath-1);
      }

      .st9 {
        clip-path: url(#clippath-3);
      }

      .st10 {
        clip-path: url(#clippath-4);
      }

      .st11 {
        clip-path: url(#clippath-2);
      }

      .st12 {
        clip-path: url(#clippath-7);
      }

      .st13 {
        clip-path: url(#clippath-6);
      }

      .st14 {
        clip-path: url(#clippath-5);
      }

      .st15, .st5 {
        fill: #fff;
      }

      .st7 {
        font-family: HelveticaNeue, 'Helvetica Neue';
        font-size: 18px;
      }

      .st16 {
        clip-path: url(#clippath);
      }
    </style>
    <clipPath id="clippath">
      <rect class="st0" x="133.9" y="13.2" width="19" height="17"/>
    </clipPath>
    <clipPath id="clippath-1">
      <rect class="st0" x="184.6" y="127.7" width="23" height="15"/>
    </clipPath>
    <clipPath id="clippath-2">
      <rect class="st0" x="39.5" y="124.9" width="77" height="19"/>
    </clipPath>
    <clipPath id="clippath-3">
      <rect class="st0" x="136.2" y="118.4" width="16.5" height="15.3"/>
    </clipPath>
    <clipPath id="clippath-4">
      <rect class="st0" x="30.5" y="18.2" width="57" height="19"/>
    </clipPath>
    <clipPath id="clippath-5">
      <rect class="st0" x="238.5" y="59.4" width="19" height="58"/>
    </clipPath>
    <clipPath id="clippath-6">
      <rect class="st0" x="210.4" y="167.6" width="19" height="15"/>
    </clipPath>
    <clipPath id="clippath-7">
      <rect class="st0" x="162.9" y="167.6" width="17" height="15"/>
    </clipPath>
  </defs>
  <g id="Background">
    <rect class="st15" width="266.5" height="246.5" rx="12" ry="12"/>
  </g>
  <g id="Mid">
    <g>
      <rect class="st5" x="133.4" y="191.7" width="125.6" height="47"/>
      <text class="st7" transform="translate(145.8 220.8)"><tspan x="0" y="0">Environment</tspan></text>
    </g>
    <g>
      <g>
        <ellipse class="st4" cx="143.4" cy="85.2" rx="44.6" ry="15.7"/>
        <polyline class="st4" points="98.8 85.2 98.8 21.7 188 21.7 188 85.2"/>
        <path class="st4" d="M188,65.5c0,8.7-20,15.7-44.6,15.7s-44.6-7-44.6-15.7"/>
        <path class="st4" d="M188,43.6c0,8.7-20,15.7-44.6,15.7s-44.6-7-44.6-15.7"/>
        <ellipse class="st4" cx="143.4" cy="21.7" rx="44.6" ry="15.7"/>
      </g>
      <g class="st16">
        <path class="st2" d="M143.4,21.7h0Z"/>
        <path d="M139.4,28.3c2.7-6.7,3.2-10.8,3.6-13.7,1.6,0,7.7,0,7.7,5.2s-4.2,8.4-10,8.4h-1.3M139.3,29.6c5.6,0,13.4-4.2,13.4-10.8s-1-3.5-2.2-4.2c-2-1.3-4.2-1.3-6.5-1.3s-3.5,0-5.5.9c-3.2,1.4-3.6,3.4-3.6,3.6s0,.2.2.2c.4,0,.9-.3,1.1-.5.5-.3.6-.5.7-.9.3-1,1-1.8,4-1.9-.4,5-1.6,9.5-3.3,13.7-.9.3-1.5.9-1.5,1.1s0,.2.5.2h2.5Z"/>
      </g>
    </g>
    <g>
      <rect class="st5" x="172.7" y="111.7" width="47" height="47"/>
      <polygon class="st2" points="196.1 135.2 196.1 135.2 196.1 135.2 196.1 135.2 196.1 135.2 196.1 135.2 196.1 135.2 196.1 135.2 196.1 135.2 196.1 135.2 196.1 135.2 196.1 135.2 196.1 135.2 196.1 135.2 196.1 135.2 196.1 135.2 196.1 135.2 196.1 135.2 196.1 135.2 196.1 135.2 196.1 135.2 196.1 135.2 196.1 135.2 196.1 135.2 196.1 135.2 196.1 135.2 196.1 135.2 196.1 135.2 196.1 135.2 196.1 135.2 196.1 135.2 196.1 135.2 196.1 135.2 196.1 135.2 196.1 135.2 196.1 135.2 196.1 135.2 196.1 135.2 196.1 135.2 196.1 135.2 196.1 135.2 196.1 135.2 196.1 135.2 196.1 135.2 196.1 135.2 196.1 135.2 196.1 135.2 196.1 135.2 196.1 135.2 196.1 135.2 196.1 135.2 196.1 135.2 196.1 135.2 196.1 135.2 196.1 135.2 196.1 135.2 196.1 135.2 196.1 135.2 196.1 135.2 196.1 135.2 196.1 135.2 196.1 135.2 196.1 135.2 196.1 135.2 196.1 135.2 196.1 135.2 196.1 135.2 196.1 135.2 196.1 135.2 196.1 135.2 196.1 135.2 196.1 135.2 196.1 135.2 196.1 135.2 196.1 135.2 196.1 135.2 196.1 135.2 196.1 135.2 196.1 135.2 196.1 135.2 196.1 135.2 196.1 135.2 196.1 135.2 196.1 135.2 196.1 135.2 196.1 135.2 196.1 135.2"/>
      <g class="st8">
        <path class="st2" d="M196.1,135.2h0Z"/>
        <path d="M191.2,130h2.7c-.8,3.5-1,4.6-1,6.2s0,1,.2,1.8c.2,1,.5,1.2.9,1.2s1-.4,1-.9,0-.2-.1-.5c-.7-1.7-.7-3.3-.7-3.9,0-1.3.2-2.6.4-3.8h2.7c.3,0,1.2,0,1.2-.8s-.5-.6-1-.6h-8c-.5,0-1.4,0-2.5,1.1-.8.9-1.5,2-1.5,2.1s0,.2.3.2.2,0,.4-.3c1.2-1.8,2.6-1.8,3-1.8h1.4c-.8,2.9-2.1,5.8-3.1,7.9-.2.4-.2.4-.2.6,0,.5.4.6.7.6.7,0,.9-.7,1.2-1.6.3-1.1.3-1.1.6-2.3l1.3-5.3"/>
        <path d="M205.2,137c-.5,1.8-.9,2.7-1.4,3.6-.5.9-1.2,1.7-1.9,1.7s-1.1-1.3-1.1-2.2.3-2.4.5-3h3.9M201.5,136.4c.9-3.6,2.3-5.2,3.3-5.2s1.1,1.9,1.1,2.2c0,.7-.1,1.6-.5,3h-3.9ZM207.1,134.3c0-1.8-.7-3.6-2.3-3.6-2.5,0-5.2,4.5-5.2,8.4s.8,3.6,2.3,3.6c2.6,0,5.2-4.6,5.2-8.4Z"/>
      </g>
    </g>
    <g>
      <rect class="st5" x="34.7" y="110.9" width="86.6" height="47"/>
      <polygon class="st2" points="77.5 134.5 77.5 134.5 77.5 134.5 77.5 134.5 77.5 134.5 77.5 134.5 77.5 134.5 77.5 134.5 77.5 134.5 77.5 134.5 77.5 134.5 77.5 134.5 77.5 134.5 77.5 134.5 77.5 134.5 77.5 134.5 77.5 134.5 77.5 134.5 77.5 134.5 77.5 134.5 77.5 134.5 77.5 134.5 77.5 134.5 77.5 134.5 77.5 134.5 77.5 134.5 77.5 134.5 77.5 134.5 77.5 134.5 77.5 134.5 77.5 134.5 77.5 134.5 77.5 134.5 77.5 134.5 77.5 134.5 77.5 134.5 77.5 134.5 77.5 134.5 77.5 134.5 77.5 134.5 77.5 134.5 77.5 134.5 77.5 134.5 77.5 134.5 77.5 134.5 77.5 134.5 77.5 134.5 77.5 134.5 77.5 134.5 77.5 134.5 77.5 134.5 77.5 134.5 77.5 134.5 77.5 134.5 77.5 134.5 77.5 134.5 77.5 134.5 77.5 134.5 77.5 134.5 77.5 134.5 77.5 134.5 77.5 134.5 77.5 134.5 77.5 134.5 77.5 134.5 77.5 134.5 77.5 134.5 77.5 134.5 77.5 134.5 77.5 134.5 77.5 134.5 77.5 134.5 77.5 134.5 77.5 134.5 77.5 134.5 77.5 134.5 77.5 134.5 77.5 134.5 77.5 134.5 77.5 134.5 77.5 134.5 77.5 134.5 77.5 134.5 77.5 134.5 77.5 134.5 77.5 134.5 77.5 134.5 77.5 134.5 77.5 134.5 77.5 134.5 77.5 134.5"/>
      <g class="st11">
        <path class="st2" d="M78,134.4h0Z"/>
        <path d="M46,127.5c.2-.6.2-.7,1-.7h1.9c1.8,0,3.2.9,3.2,3.3s-.4,3.8-1.9,5.8c-.5.7-1.9,2-4.1,2h-2c-.2,0-.3,0-.4,0-.2,0-.2,0-.2-.2s0,0,0-.4l2.4-9.8M42.2,137.1c-.2.7-.2.8-1.6.8s-.5,0-.5.3.2.2.5.2h5.9c3.7,0,7.2-3.8,7.2-7.7s-1.5-4.5-4.2-4.5h-6c-.3,0-.5,0-.5.3s.2.2.5.2.6,0,.8,0c.3,0,.4,0,.4.3s0,.1,0,.3l-2.4,9.6Z"/>
        <path d="M61,132.8c0-.1,0-.2,0-.2,0-.1-.2-.1-.2-.1-.2,0-.2,0-.3.3l-2,8.2c-1-.1-1.6-.6-1.6-1.4s0-.5.6-2.1c0-.3.2-.5.2-.7,0-.7-.6-1.1-1.2-1.1-1.3,0-1.8,1.7-1.8,1.9s.2.2.2.2c.2,0,.2,0,.2-.2.3-1,.9-1.5,1.3-1.5s.3.1.3.4-.1.5-.2.9c-.6,1.6-.6,1.9-.6,2.1,0,1.4,1.5,1.8,2.5,1.8,0,.3-.6,2.2-.6,2.3,0,.2.1.2.2.2.2,0,.2,0,.3-.3l.5-2.2c.5,0,1.6,0,3-1.3.3-.3.7-.8.9-1.3.2-.4.4-1.4.4-2,0-1-.6-1-.6-1-.3,0-.7.3-.7.7s.1.3.2.4c.2.2.5.5.5,1,0,1.1-1.4,3.3-3.6,3.3l2-8.1"/>
        <path d="M70.9,142.8c0,0,0,0-.3-.4-2.2-2.3-2.8-5.6-2.8-8.4s.7-6.2,2.9-8.5c.2-.2.2-.2.2-.3,0-.1,0-.2-.2-.2-.2,0-1.8,1.2-2.8,3.5-.9,2-1.1,4-1.1,5.5s.2,3.6,1.2,5.6c1.1,2.2,2.6,3.4,2.8,3.4s.2,0,.2-.2"/>
        <path d="M79,131.8c-.5,0-.9.4-.9.8s.2.5.6.5.8-.3.8-1-.8-1.5-2.1-1.5c-2.4,0-3,1.8-3,2.6,0,1.4,1.3,1.7,1.8,1.8.9.2,1.9.4,1.9,1.4s-.4,2-2.6,2-1.6,0-2-.9c.7,0,1.1-.4,1.1-.9s-.3-.6-.7-.6-1,.4-1,1.2,1,1.7,2.6,1.7c2.9,0,3.6-2.2,3.6-3s-.3-1.1-.6-1.3c-.5-.5-1-.6-1.8-.8-.6-.1-1.4-.3-1.4-1.1s.4-1.6,2-1.6,1.3.1,1.6.8"/>
        <path d="M83.5,136.2h1.3c.2,0,.4,0,.4-.3s-.2-.2-.4-.2h-1.2l.5-1.9c0,0,0-.1,0-.2,0-.2-.2-.4-.4-.4s-.5.2-.6.5c0,.3,0-.3-.5,1.9h-1.3c-.2,0-.4,0-.4.3s.2.2.4.2h1.2l-.7,3c0,.3-.2.8-.2.9,0,.7.6,1.2,1.3,1.2,1.4,0,2.2-1.8,2.2-1.9s-.2-.2-.2-.2c-.1,0-.2,0-.3.2-.4.8-1,1.5-1.7,1.5s-.4-.2-.4-.6,0-.4,0-.5l.9-3.6"/>
        <path d="M90.4,138.5c0-1.2-.4-1.9-1.1-1.9s-.9.4-.9.9.4.9.9.9.4,0,.6-.2c0,0,0,0,0,0s0,0,0,.3c0,1.3-.6,2.4-1.2,3-.2.2-.2.2-.2.3,0,.1,0,.2.2.2.2,0,1.6-1.4,1.6-3.5"/>
        <path d="M100.2,136.4c0,.3,0,.4-.4.7-.8,1-1.5,1.3-2,1.3-.9,0-1.1-1-1.1-1.7s.6-3.1,1-3.9c.6-1.1,1.4-1.7,2.1-1.7,1.2,0,1.4,1.5,1.4,1.6s0,.2,0,.3l-.9,3.5M101.4,131.7c-.3-.7-.8-1.1-1.6-1.1-2.1,0-4.3,2.6-4.3,5.2s1,2.9,2.4,2.9,1.3,0,2.3-1.3c.1.8.8,1.3,1.6,1.3s1-.4,1.3-1c.3-.6.5-1.7.5-1.8,0-.2-.2-.2-.2-.2-.2,0-.2,0-.3.3-.3,1.2-.6,2.2-1.4,2.2s-.5-.5-.5-.8,0-.5.2-1.3c.2-.8.2-.9.4-1.6l.6-2.5c.1-.5.1-.5.1-.6,0-.3-.2-.5-.5-.5s-.7.4-.8.8Z"/>
        <path d="M107.2,136.2h1.3c.2,0,.4,0,.4-.3s-.2-.2-.4-.2h-1.2l.5-1.9c0,0,0-.1,0-.2,0-.2-.2-.4-.4-.4s-.5.2-.6.5c0,.3,0-.3-.5,1.9h-1.3c-.2,0-.4,0-.4.3s.1.2.4.2h1.2l-.7,3c0,.3-.2.8-.2.9,0,.7.6,1.2,1.3,1.2,1.4,0,2.2-1.8,2.2-1.9s-.2-.2-.2-.2c-.2,0-.2,0-.3.2-.4.8-1,1.5-1.7,1.5s-.4-.2-.4-.6,0-.4,0-.5l.9-3.6"/>
        <path d="M115.7,134c0-1.4-.2-3.6-1.2-5.6-1.1-2.2-2.6-3.4-2.8-3.4s-.2,0-.2.2,0,0,.3.4c1.8,1.8,2.8,4.6,2.8,8.3s-.7,6.2-2.9,8.5c-.2.2-.2.2-.2.3,0,.1,0,.2.2.2.2,0,1.8-1.2,2.8-3.5.9-2,1.1-4,1.1-5.5"/>
      </g>
    </g>
    <polygon class="st2" points="146.6 126.7 146.6 126.7 146.6 126.7 146.6 126.7 146.6 126.7 146.6 126.7 146.6 126.7 146.6 126.7 146.6 126.7 146.6 126.7 146.6 126.7 146.6 126.7 146.6 126.7 146.6 126.7 146.6 126.7 146.6 126.7 146.6 126.7 146.6 126.7 146.6 126.7 146.6 126.7 146.6 126.7 146.6 126.7 146.6 126.7 146.6 126.7 146.6 126.7 146.6 126.7 146.6 126.7 146.6 126.7 146.6 126.7 146.6 126.7 146.6 126.7 146.6 126.7 146.6 126.7 146.6 126.7 146.6 126.7 146.6 126.7 146.6 126.7 146.6 126.7 146.6 126.7 146.6 126.7 146.6 126.7 146.6 126.7 146.6 126.7 146.6 126.7 146.6 126.7 146.6 126.7 146.6 126.7 146.6 126.7 146.6 126.7 146.6 126.7 146.6 126.7 146.6 126.7 146.6 126.7 146.6 126.7 146.6 126.7 146.6 126.7 146.6 126.7 146.6 126.7 146.6 126.7 146.6 126.7 146.6 126.7 146.6 126.7 146.6 126.7 146.6 126.7 146.6 126.7 146.6 126.7 146.6 126.7 146.6 126.7 146.6 126.7 146.6 126.7 146.6 126.7 146.6 126.7 146.6 126.7 146.6 126.7 146.6 126.7 146.6 126.7 146.6 126.7 146.6 126.7 146.6 126.7 146.6 126.7 146.6 126.7 146.6 126.7 146.6 126.7 146.6 126.7 146.6 126.7 146.6 126.7"/>
    <g class="st9">
      <path class="st2" d="M144.5,126h0Z"/>
      <path d="M138.4,127.7c0,.3-.2.9-.2,1,0,.4.3.6.7.6s.7-.2.8-.6c0,0,.8-3.2.9-3.6.2-.7.6-2.3.7-3,0-.3.7-1.4,1.3-1.9.2-.2.8-.7,1.8-.7s.9.3,1,.3c-.7.1-1.2.7-1.2,1.3s.3.8.9.8,1.3-.5,1.3-1.3-.7-1.5-1.9-1.5-2.5,1.1-2.9,1.8c-.2-1-1-1.8-2.1-1.8s-1.5.9-1.7,1.3c-.4.8-.7,2.1-.7,2.2,0,.2.2.2.3.2.2,0,.3,0,.4-.5.4-1.6.8-2.7,1.7-2.7s.7.2.7,1,0,.7-.4,1.9l-1.3,5.3"/>
      <path d="M150.6,126.2h1.6c.3,0,.5,0,.5-.3s-.2-.2-.5-.2h-1.5l.6-2.4c0,0,0-.2,0-.2,0-.3-.2-.5-.5-.5s-.6.3-.7.7c-.1.4,0-.4-.6,2.4h-1.6c-.3,0-.5,0-.5.4s.2.2.5.2h1.5l-.9,3.8c0,.4-.2,1-.2,1.2,0,.9.8,1.5,1.7,1.5,1.8,0,2.8-2.2,2.8-2.4s-.2-.2-.3-.2c-.2,0-.2,0-.3.3-.4,1-1.3,1.9-2.1,1.9s-.6-.2-.6-.8,0-.5,0-.7l1.1-4.6"/>
    </g>
    <polygon class="st2" points="53.5 28.6 53.5 28.6 53.5 28.6 53.5 28.6 53.5 28.6 53.5 28.6 53.5 28.6 53.5 28.6 53.5 28.6 53.5 28.6 53.5 28.6 53.5 28.6 53.5 28.6 53.5 28.6 53.5 28.6 53.5 28.6 53.5 28.6 53.5 28.6 53.5 28.6 53.5 28.6 53.5 28.6 53.5 28.6 53.5 28.6 53.5 28.6 53.5 28.6 53.5 28.6 53.5 28.6 53.5 28.6 53.5 28.6 53.5 28.6 53.5 28.6 53.5 28.6 53.5 28.6 53.5 28.6 53.5 28.6 53.5 28.6 53.5 28.6 53.5 28.6 53.5 28.6 53.5 28.6 53.5 28.6 53.5 28.6 53.5 28.6 53.5 28.6 53.5 28.6 53.5 28.6 53.5 28.6 53.5 28.6 53.5 28.6 53.5 28.6 53.5 28.6 53.5 28.6 53.5 28.6 53.5 28.6 53.5 28.6 53.5 28.6 53.5 28.6 53.5 28.6 53.5 28.6 53.5 28.6 53.5 28.6 53.5 28.6 53.5 28.6 53.5 28.6 53.5 28.6 53.5 28.6 53.5 28.6 53.5 28.6 53.5 28.6 53.5 28.6 53.5 28.6 53.5 28.6 53.5 28.6 53.5 28.6 53.5 28.6 53.5 28.6 53.5 28.6 53.5 28.6 53.5 28.6 53.5 28.6 53.5 28.6 53.5 28.6 53.5 28.6 53.5 28.6 53.5 28.6 53.5 28.6 53.5 28.6 53.5 28.6 53.5 28.6 53.5 28.6 53.5 28.6"/>
    <g class="st10">
      <path class="st2" d="M59,27.7h0Z"/>
      <path d="M35.4,36.2c0,0,0,0-.3-.4-2.2-2.3-2.8-5.6-2.8-8.4s.7-6.2,2.9-8.5c.2-.2.2-.2.2-.3,0-.1,0-.2-.2-.2-.2,0-1.8,1.2-2.8,3.5-.9,2-1.1,4-1.1,5.5s.2,3.6,1.2,5.6c1.1,2.2,2.6,3.4,2.8,3.4s.2,0,.2-.2"/>
      <path d="M43.4,25.3c-.5,0-.9.4-.9.8s.2.5.6.5.8-.3.8-1-.8-1.5-2.1-1.5c-2.4,0-3,1.8-3,2.6,0,1.4,1.3,1.7,1.8,1.8.9.2,1.9.4,1.9,1.4s-.4,2-2.6,2-1.6,0-2-.9c.7,0,1.1-.4,1.1-.9s-.3-.6-.7-.6-1,.4-1,1.2,1,1.7,2.6,1.7c2.9,0,3.6-2.2,3.6-3s-.3-1.1-.6-1.3c-.5-.5-1-.6-1.8-.8-.6-.1-1.4-.3-1.4-1.1s.4-1.6,2-1.6,1.3.1,1.6.8"/>
      <path d="M47.9,29.7h1.3c.2,0,.4,0,.4-.3s-.2-.2-.4-.2h-1.2l.5-1.9c0,0,0-.1,0-.2,0-.2-.2-.4-.4-.4s-.5.2-.6.5c0,.3,0-.3-.5,1.9h-1.3c-.2,0-.4,0-.4.3s.1.2.4.2h1.2l-.7,3c0,.3-.2.8-.2.9,0,.7.6,1.2,1.3,1.2,1.4,0,2.2-1.8,2.2-1.9s-.2-.2-.2-.2c-.1,0-.2,0-.3.2-.4.8-1,1.5-1.7,1.5s-.4-.2-.4-.6,0-.4,0-.5l.9-3.6"/>
      <path d="M54.8,31.9c0-1.2-.4-1.9-1.1-1.9s-.9.4-.9.9.4.9.9.9.4,0,.6-.2c0,0,0,0,0,0s0,0,0,.3c0,1.3-.6,2.4-1.2,3-.2.2-.2.2-.2.3,0,.1,0,.2.2.2.2,0,1.6-1.4,1.6-3.5"/>
      <path d="M64.6,29.8c0,.3,0,.4-.4.7-.8,1-1.5,1.3-2,1.3-.9,0-1.1-1-1.1-1.7s.6-3.1,1-3.9c.6-1.1,1.4-1.7,2.1-1.7,1.2,0,1.4,1.5,1.4,1.6s0,.2,0,.3l-.9,3.5M65.8,25.2c-.3-.7-.8-1.1-1.6-1.1-2.1,0-4.3,2.6-4.3,5.2s1,2.9,2.4,2.9,1.3,0,2.3-1.3c.1.8.8,1.3,1.6,1.3s1-.4,1.3-1c.3-.6.5-1.7.5-1.8,0-.2-.2-.2-.2-.2-.2,0-.2,0-.3.3-.3,1.2-.6,2.2-1.4,2.2s-.5-.5-.5-.8,0-.5.2-1.3c.2-.8.2-.9.4-1.6l.6-2.5c.1-.5.1-.5.1-.6,0-.3-.2-.5-.5-.5s-.7.4-.8.8Z"/>
      <path d="M71.7,29.7h1.3c.2,0,.4,0,.4-.3s-.2-.2-.4-.2h-1.2l.5-1.9c0,0,0-.1,0-.2,0-.2-.2-.4-.4-.4s-.5.2-.6.5c0,.3,0-.3-.5,1.9h-1.3c-.2,0-.4,0-.4.3s.1.2.4.2h1.2l-.7,3c0,.3-.2.8-.2.9,0,.7.6,1.2,1.3,1.2,1.4,0,2.2-1.8,2.2-1.9s-.2-.2-.2-.2c-.1,0-.2,0-.3.2-.4.8-1,1.5-1.7,1.5s-.4-.2-.4-.6,0-.4,0-.5l.9-3.6"/>
      <path d="M80.1,27.5c0-1.4-.2-3.6-1.2-5.6-1.1-2.2-2.6-3.4-2.8-3.4s-.2,0-.2.2,0,0,.3.4c1.8,1.8,2.8,4.6,2.8,8.3s-.7,6.2-2.9,8.5c-.2.2-.2.2-.2.3,0,.1,0,.2.2.2.2,0,1.8-1.2,2.8-3.5.9-2,1.1-4,1.1-5.5"/>
      <path d="M83.7,27.2c0-.2,0-.5-.1-.7h1.4c-.1.2-.1.5-.1.7v6.3c0,.2,0,.5.1.7h-1.4c.1-.2.1-.5.1-.7v-6.3M85.3,27.2c0-.6,0-.7.8-.7s.4,0,.4-.2-.2-.2-.4-.2h-3.5c-.2,0-.4,0-.4.2s.2.2.4.2c.7,0,.8.1.8.7v6.3c0,.6,0,.7-.8.7s-.4,0-.4.2.2.2.4.2h3.5c.2,0,.4,0,.4-.2s-.2-.2-.3-.2c-.8,0-.8,0-.8-.7v-6.3Z"/>
    </g>
    <polygon class="st2" points="247.3 88 247.3 88 247.3 88 247.3 88 247.3 88 247.3 88 247.3 88 247.3 88 247.3 88 247.3 88 247.3 88 247.3 88 247.3 88 247.3 88 247.3 88 247.3 88 247.3 88 247.3 88 247.3 88 247.3 88 247.3 88 247.3 88 247.3 88 247.3 88 247.3 88 247.3 88 247.3 88 247.3 88 247.3 88 247.3 88 247.3 88 247.3 88 247.3 88 247.3 88 247.3 88 247.3 88 247.3 88 247.3 88 247.3 88 247.3 88 247.3 88 247.3 88 247.3 88 247.3 88 247.3 88 247.3 88 247.3 88 247.3 88 247.3 88 247.3 88 247.3 88 247.3 88 247.3 88 247.3 88 247.3 88 247.3 88 247.3 88 247.3 88 247.3 88 247.3 88 247.3 88 247.3 88 247.3 88 247.3 88 247.3 88 247.3 88 247.3 88 247.3 88 247.3 88 247.3 88 247.3 88 247.3 88 247.3 88 247.3 88 247.3 88 247.3 88 247.3 88 247.3 88 247.3 88 247.3 88 247.3 88 247.3 88 247.3 88 247.3 88 247.3 88 247.3 88 247.3 88 247.3 88 247.3 88"/>
    <g class="st14">
      <path class="st2" d="M248,88.4h0Z"/>
      <path d="M239.4,63.9c0,0,0,0,.4-.3,2.3-2.2,5.6-2.8,8.4-2.8s6.2.7,8.5,2.9c.2.2.3.2.3.2.1,0,.2,0,.2-.2,0-.2-1.2-1.8-3.5-2.8-2-.9-4-1.1-5.5-1.1s-3.6.2-5.6,1.2c-2.2,1.1-3.4,2.6-3.4,2.8s0,.2.2.2"/>
      <path d="M250.4,72c0-.5-.4-.9-.8-.9s-.5.2-.5.6.3.8,1,.8,1.5-.8,1.5-2.1c0-2.4-1.8-3-2.6-3-1.4,0-1.7,1.3-1.8,1.8-.2.9-.4,1.9-1.4,1.9s-2-.4-2-2.6,0-1.6.9-2c0,.7.4,1.1.9,1.1s.6-.3.6-.7-.4-1-1.2-1-1.7,1-1.7,2.6c0,2.9,2.2,3.6,3,3.6s1.1-.3,1.3-.6c.5-.5.6-1,.8-1.8.1-.6.3-1.4,1.1-1.4s1.6.4,1.6,2-.1,1.3-.8,1.6"/>
      <path d="M245.9,76.5v1.3c0,.2,0,.4.3.4s.2-.2.2-.4v-1.2s1.9.5,1.9.5c0,0,.1,0,.2,0,.2,0,.4-.2.4-.4s-.2-.5-.5-.6c-.3,0,.3,0-1.9-.5v-1.3c0-.2,0-.4-.3-.4s-.2.1-.2.4v1.2s-3-.7-3-.7c-.3,0-.8-.2-.9-.2-.7,0-1.2.6-1.2,1.3,0,1.4,1.8,2.2,1.9,2.2s.2-.2.2-.2c0-.1,0-.2-.2-.3-.8-.4-1.5-1-1.5-1.7s.2-.4.6-.4.4,0,.5,0l3.6.9"/>
      <path d="M243.7,83.4c1.2,0,1.9-.4,1.9-1.1s-.4-.9-.9-.9-.9.4-.9.9,0,.4.2.6c0,0,0,0,0,0s0,0-.3,0c-1.3,0-2.4-.6-3-1.2-.2-.2-.2-.2-.3-.2-.1,0-.2,0-.2.2,0,.2,1.4,1.6,3.5,1.6"/>
      <path d="M245.8,93.2c-.3,0-.4,0-.7-.4-1-.8-1.3-1.5-1.3-2,0-.9,1-1.1,1.7-1.1s3.1.6,3.9,1c1.1.6,1.7,1.4,1.7,2.1,0,1.2-1.5,1.4-1.6,1.4s-.2,0-.3,0l-3.5-.9M250.4,94.4c.7-.3,1.1-.8,1.1-1.6,0-2.1-2.6-4.3-5.2-4.3s-2.9,1-2.9,2.4,0,1.3,1.3,2.3c-.7.1-1.3.8-1.3,1.6s.4,1,1,1.3c.6.3,1.7.5,1.8.5.2,0,.2-.2.2-.2,0-.2,0-.2-.3-.3-1.2-.3-2.2-.6-2.2-1.4s.5-.5.8-.5.5,0,1.3.2c.8.2.9.2,1.6.4l2.5.6c.5.1.5.1.6.1.3,0,.5-.2.5-.5s-.4-.7-.8-.8Z"/>
      <path d="M245.9,100.3v1.3c0,.2,0,.4.3.4s.2-.2.2-.4v-1.2s1.9.5,1.9.5c0,0,.1,0,.2,0,.2,0,.4-.2.4-.4s-.2-.5-.5-.6c-.3,0,.3,0-1.9-.5v-1.3c0-.2,0-.4-.3-.4s-.2.1-.2.4v1.2s-3-.7-3-.7c-.3,0-.8-.2-.9-.2-.7,0-1.2.6-1.2,1.3,0,1.4,1.8,2.2,1.9,2.2s.2-.2.2-.2c0-.2,0-.2-.2-.3-.8-.4-1.5-1-1.5-1.7s.2-.4.6-.4.4,0,.5,0l3.6.9"/>
      <path d="M248.1,108.7c1.4,0,3.6-.2,5.6-1.2,2.2-1.1,3.4-2.6,3.4-2.8s0-.2-.2-.2,0,0-.4.3c-1.8,1.8-4.6,2.8-8.3,2.8s-6.2-.7-8.5-2.9c-.2-.2-.3-.2-.3-.2-.1,0-.2,0-.2.2,0,.2,1.2,1.8,3.5,2.8,2,.9,4,1.1,5.5,1.1"/>
      <path d="M241.1,114.1c0-.6.3-1.3,1.4-1.6.7-.2,1.8-.2,2.7-.2s1.9,0,2.6.2c1,.3,1.3,1.1,1.3,1.6s-.4,1.3-1.1,1.6c-.7.2-1.6.2-2.7.2s-1.9,0-2.6-.2c-1.1-.2-1.4-1.1-1.4-1.6M245,117c1.4,0,2.4-.2,3.2-.7.6-.4,1.1-1.2,1.1-2.2,0-2.9-3.4-2.9-4.3-2.9s-4.2,0-4.2,2.9,3.3,2.9,4.2,2.9Z"/>
    </g>
  </g>
  <g id="Top">
    <g>
      <g>
        <g>
          <line class="st3" x1="204.8" y1="182.6" x2="204.8" y2="158.7"/>
          <polygon class="st6" points="207.7 180.6 204.8 191.4 201.9 180.6 207.7 180.6"/>
        </g>
        <g class="st13">
          <path class="st2" d="M219.9,175.1h0Z"/>
          <path d="M217.3,175.9c-.1.4-.1.5-.5.9-1,1.3-2,1.7-2.7,1.7-1.2,0-1.5-1.3-1.5-2.2s.8-4.1,1.3-5.2c.7-1.4,1.8-2.3,2.8-2.3,1.5,0,1.9,2,1.9,2.1s0,.3,0,.4l-1.2,4.7M218.8,169.7c-.4-.9-1.1-1.5-2.2-1.5-2.8,0-5.7,3.5-5.7,7s1.3,3.8,3.2,3.8,1.7,0,3.1-1.8c.2,1,1,1.8,2.2,1.8s1.4-.5,1.8-1.3c.4-.9.7-2.3.7-2.4,0-.2-.2-.2-.3-.2-.2,0-.3,0-.3.4-.4,1.5-.8,3-1.8,3s-.7-.6-.7-1.1,0-.7.3-1.8c.3-1,.3-1.2.5-2.1l.9-3.3c.2-.7.2-.7.2-.8,0-.4-.3-.6-.7-.6s-.9.5-1,1Z"/>
          <path d="M226.8,175.7h1.7c.3,0,.5,0,.5-.4s-.2-.2-.5-.2h-1.6l.6-2.5c0,0,0-.2,0-.2,0-.3-.2-.5-.6-.5s-.7.3-.8.7c-.1.4.1-.4-.6,2.5h-1.7c-.3,0-.5,0-.5.4s.2.2.5.2h1.6l-1,4c-.1.4-.3,1-.3,1.2,0,1,.8,1.6,1.8,1.6,1.9,0,2.9-2.4,2.9-2.6s-.2-.2-.3-.2c-.2,0-.2,0-.4.3-.5,1.1-1.3,2-2.3,2s-.6-.2-.6-.8,0-.5.1-.7l1.2-4.8"/>
        </g>
      </g>
      <g>
        <g>
          <line class="st3" x1="183.7" y1="191.4" x2="183.7" y2="167.5"/>
          <polygon class="st6" points="186.6 169.5 183.7 158.7 180.8 169.5 186.6 169.5"/>
        </g>
        <g class="st12">
          <path class="st2" d="M171.4,175.1h0Z"/>
          <path d="M171,169.8c-.7,0-1.1.5-1.1,1.1s.2.7.7.7,1.1-.4,1.1-1.3-1-2.1-2.8-2.1c-3.1,0-4,2.4-4,3.5,0,1.9,1.8,2.2,2.5,2.4,1.2.2,2.5.5,2.5,1.8s-.5,2.6-3.4,2.6-2.2,0-2.7-1.3c.9.1,1.5-.6,1.5-1.3s-.4-.8-.9-.8-1.3.5-1.3,1.6,1.4,2.3,3.4,2.3c3.9,0,4.8-2.9,4.8-4s-.5-1.5-.7-1.7c-.6-.7-1.3-.8-2.4-1-.9-.2-1.8-.4-1.8-1.4s.6-2.1,2.7-2.1,1.8.2,2.1,1.1"/>
          <path d="M177,175.7h1.7c.3,0,.5,0,.5-.4s-.2-.2-.5-.2h-1.6l.6-2.5c0,0,0-.2,0-.2,0-.3-.2-.5-.6-.5s-.7.3-.8.7c-.1.4.1-.4-.6,2.5h-1.7c-.3,0-.5,0-.5.4s.2.2.5.2h1.6l-1,4c-.1.4-.3,1-.3,1.2,0,1,.8,1.6,1.8,1.6,1.9,0,2.9-2.4,2.9-2.6s-.2-.2-.3-.2c-.2,0-.2,0-.4.3-.5,1.1-1.3,2-2.3,2s-.6-.2-.6-.8,0-.5,0-.7l1.2-4.8"/>
        </g>
      </g>
    </g>
    <line class="st3" x1="219.6" y1="134.4" x2="236.1" y2="134.4"/>
    <g>
      <line class="st3" x1="196.9" y1="39.3" x2="236.1" y2="39.3"/>
      <polygon class="st6" points="198.9 42.2 188 39.3 198.9 36.4 198.9 42.2"/>
    </g>
    <line class="st1" x1="236.1" y1="134.4" x2="236.1" y2="39.3"/>
    <g>
      <line class="st3" x1="163.8" y1="135.3" x2="121.3" y2="135.3"/>
      <polygon class="st6" points="161.8 132.4 172.7 135.3 161.8 138.2 161.8 132.4"/>
    </g>
    <g>
      <line class="st3" x1="25.9" y1="135.2" x2="9.7" y2="135.2"/>
      <polygon class="st6" points="24 132.3 34.8 135.2 24 138.1 24 132.3"/>
    </g>
    <line class="st3" x1="98.8" y1="40.1" x2="9.7" y2="40.1"/>
    <line class="st1" x1="9.7" y1="135.2" x2="9.7" y2="40.1"/>
  </g>
</svg>