<?xml version="1.0" encoding="UTF-8"?><svg xmlns="http://www.w3.org/2000/svg" xmlns:xlink="http://www.w3.org/1999/xlink" viewBox="0 0 515.25 218.87"><defs><style>.cls-1,.cls-2,.cls-3,.cls-4,.cls-5{fill:none;}.cls-6{fill:#00983a;}.cls-6,.cls-7{opacity:.2;}.cls-2{stroke:#27348b;}.cls-2,.cls-3,.cls-8,.cls-4,.cls-5,.cls-9{stroke-miterlimit:10;}.cls-2,.cls-4{opacity:.4;}.cls-3{opacity:0;stroke:#000;}.cls-7{fill:#27348b;}.cls-10,.cls-11{fill:#1d1d1b;}.cls-8{fill:#ededed;stroke:#575756;}.cls-12{clip-path:url(#clippath-1);}.cls-13{clip-path:url(#clippath-3);}.cls-14{clip-path:url(#clippath-4);}.cls-15{clip-path:url(#clippath-2);}.cls-16{clip-path:url(#clippath-6);}.cls-17{clip-path:url(#clippath-5);}.cls-18,.cls-9{fill:#fff;}.cls-4{stroke:#00983a;}.cls-5,.cls-9{stroke:#1d1d1b;}.cls-19{letter-spacing:-.09em;}.cls-20{letter-spacing:-.02em;}.cls-11{font-family:HelveticaNeue, 'Helvetica Neue';font-size:18px;}.cls-21{clip-path:url(#clippath);}</style><clipPath id="clippath"><rect class="cls-1" x="73.15" y="46.07" width="66" height="25"/></clipPath><clipPath id="clippath-1"><rect class="cls-1" x="204.58" y="71.69" width="66" height="25"/></clipPath><clipPath id="clippath-2"><rect class="cls-1" x="323.96" y="58.19" width="19" height="17"/></clipPath><clipPath id="clippath-3"><rect class="cls-1" x="443.4" y="57.15" width="23" height="15"/></clipPath><clipPath id="clippath-4"><rect class="cls-1" x="437.9" y="129.06" width="34" height="19"/></clipPath><clipPath id="clippath-5"><rect class="cls-1" x="136.96" y="90.93" width="19" height="15"/></clipPath><clipPath id="clippath-6"><rect class="cls-1" x="60.14" y="90.93" width="17" height="15"/></clipPath></defs><g id="Background"><rect class="cls-18" width="515.25" height="218.87" rx="12" ry="12"/></g><g id="Base"><polygon class="cls-3" points="106.15 98.43 106.15 98.43 106.15 98.43 106.15 98.43 106.15 98.43 106.15 98.43 106.15 98.43 106.15 98.43 106.15 98.43 106.15 98.43 106.15 98.43 106.15 98.43 106.15 98.43 106.15 98.43 106.15 98.43 106.15 98.43 106.15 98.43 106.15 98.43 106.15 98.43 106.15 98.43 106.15 98.43 106.15 98.43 106.15 98.43 106.15 98.43 106.15 98.43 106.15 98.43 106.15 98.43 106.15 98.43 106.15 98.43 106.15 98.43 106.15 98.43 106.15 98.43 106.15 98.43 106.15 98.43 106.15 98.43 106.15 98.43 106.15 98.43 106.15 98.43 106.15 98.43 106.15 98.43 106.15 98.43 106.15 98.43 106.15 98.43 106.15 98.43 106.15 98.43 106.15 98.43 106.15 98.43 106.15 98.43 106.15 98.43 106.15 98.43 106.15 98.43 106.15 98.43 106.15 98.43 106.15 98.43 106.15 98.43 106.15 98.43 106.15 98.43 106.15 98.43 106.15 98.43 106.15 98.43 106.15 98.43 106.15 98.43 106.15 98.43 106.15 98.43 106.15 98.43 106.15 98.43 106.15 98.43 106.15 98.43 106.15 98.43 106.15 98.43 106.15 98.43 106.15 98.43 106.15 98.43 106.15 98.43 106.15 98.43 106.15 98.43 106.15 98.43 106.15 98.43 106.15 98.43 106.15 98.43 106.15 98.43 106.15 98.43 106.15 98.43 106.15 98.43 106.15 98.43 106.15 98.43 106.15 98.43 106.15 98.43 106.15 98.43 106.15 98.43"/><polygon class="cls-3" points="106.15 98.43 106.15 98.43 106.15 98.43 106.15 98.43 106.15 98.43 106.15 98.43 106.15 98.43 106.15 98.43 106.15 98.43 106.15 98.43 106.15 98.43 106.15 98.43 106.15 98.43 106.15 98.43 106.15 98.43 106.15 98.43 106.15 98.43 106.15 98.43 106.15 98.43 106.15 98.43 106.15 98.43 106.15 98.43 106.15 98.43 106.15 98.43 106.15 98.43 106.15 98.43 106.15 98.43 106.15 98.43 106.15 98.43 106.15 98.43 106.15 98.43 106.15 98.43 106.15 98.43 106.15 98.43 106.15 98.43 106.15 98.43 106.15 98.43 106.15 98.43 106.15 98.43 106.15 98.43 106.15 98.43 106.15 98.43 106.15 98.43 106.15 98.43 106.15 98.43 106.15 98.43 106.15 98.43 106.15 98.43 106.15 98.43 106.15 98.43 106.15 98.43 106.15 98.43 106.15 98.43 106.15 98.43 106.15 98.43 106.15 98.43 106.15 98.43 106.15 98.43 106.15 98.43 106.15 98.43 106.15 98.43 106.15 98.43 106.15 98.43 106.15 98.43 106.15 98.43 106.15 98.43 106.15 98.43 106.15 98.43 106.15 98.43 106.15 98.43 106.15 98.43 106.15 98.43 106.15 98.43 106.15 98.43 106.15 98.43 106.15 98.43 106.15 98.43 106.15 98.43 106.15 98.43 106.15 98.43 106.15 98.43 106.15 98.43 106.15 98.43 106.15 98.43 106.15 98.43 106.15 98.43 106.15 98.43 106.15 98.43 106.15 98.43"/><rect class="cls-6" x="17.44" y="15.33" width="177.41" height="166.21"/><rect class="cls-4" x="17.44" y="15.33" width="177.41" height="166.21"/><polygon class="cls-3" points="286.4 71.77 286.4 71.77 286.4 71.77 286.4 71.77 286.4 71.77 286.4 71.77 286.4 71.77 286.4 71.77 286.4 71.77 286.4 71.77 286.4 71.77 286.4 71.77 286.4 71.77 286.4 71.77 286.4 71.77 286.4 71.77 286.4 71.77 286.4 71.77 286.4 71.77 286.4 71.77 286.4 71.77 286.4 71.77 286.4 71.77 286.4 71.77 286.4 71.77 286.4 71.77 286.4 71.77 286.4 71.77 286.4 71.77 286.4 71.77 286.4 71.77 286.4 71.77 286.4 71.77 286.4 71.77 286.4 71.77 286.4 71.77 286.4 71.77 286.4 71.77 286.4 71.77 286.4 71.77 286.4 71.77 286.4 71.77 286.4 71.77 286.4 71.77 286.4 71.77 286.4 71.77 286.4 71.77 286.4 71.77 286.4 71.77 286.4 71.77 286.4 71.77 286.4 71.77 286.4 71.77 286.4 71.77 286.4 71.77 286.4 71.77 286.4 71.77 286.4 71.77 286.4 71.77 286.4 71.77 286.4 71.77 286.4 71.77 286.4 71.77 286.4 71.77 286.4 71.77 286.4 71.77 286.4 71.77 286.4 71.77 286.4 71.77 286.4 71.77 286.4 71.77 286.4 71.77 286.4 71.77 286.4 71.77 286.4 71.77 286.4 71.77 286.4 71.77 286.4 71.77 286.4 71.77 286.4 71.77 286.4 71.77 286.4 71.77 286.4 71.77 286.4 71.77 286.4 71.77 286.4 71.77 286.4 71.77 286.4 71.77 286.4 71.77 286.4 71.77 286.4 71.77 286.4 71.77 286.4 71.77 286.4 71.77"/><rect class="cls-7" x="415.4" y="31.42" width="79" height="139.98"/><rect class="cls-2" x="415.4" y="31.42" width="79" height="139.98"/></g><g id="Mid"><rect class="cls-9" x="43.36" y="114.8" width="125.57" height="46.99"/><text class="cls-11" transform="translate(55.79 143.91)"><tspan x="0" y="0">Envi</tspan><tspan class="cls-20" x="34" y="0">r</tspan><tspan x="39.67" y="0">onment</tspan></text><rect class="cls-9" x="43.36" y="35.08" width="125.57" height="46.99"/><g class="cls-21"><path d="M79.46,55.58h2.7c-.79,3.53-1,4.55-1,6.15,0,.36,0,1,.19,1.81.24,1.05.5,1.19.86,1.19.48,0,.98-.43.98-.91,0-.14,0-.19-.14-.53-.69-1.72-.69-3.27-.69-3.93,0-1.26.17-2.55.43-3.79h2.72c.31,0,1.17,0,1.17-.81,0-.57-.5-.57-.95-.57h-7.99c-.52,0-1.43,0-2.48,1.12-.83.93-1.45,2.03-1.45,2.15,0,.02,0,.24.29.24.19,0,.24-.1.38-.29,1.17-1.84,2.55-1.84,3.03-1.84h1.36c-.76,2.88-2.05,5.77-3.05,7.94-.19.36-.19.4-.19.57,0,.45.38.64.69.64.72,0,.91-.67,1.19-1.55.33-1.1.33-1.14.64-2.34l1.33-5.27"/><path d="M100.16,64.19c.1-.22.1-.29.1-.3,0-.1-.07-.24-.29-.24-.03,0-.12,0-.19.07-.03.03-.05.05-.25.49-1.09,2.42-1.95,3.26-4.69,3.26h-2.86c-.52,0-.54-.02-.54-.17,0-.02,0-.1.07-.35l1.13-4.5h1.88c1.33,0,1.53.22,1.53.77,0,.18-.05.47-.12.76-.05.15-.05.17-.05.2s.02.24.29.24c.24,0,.25-.08.32-.37l.92-3.68c.05-.2.05-.24.05-.25,0-.17-.13-.23-.29-.23-.22,0-.24.08-.34.44-.35,1.31-.86,1.53-2.29,1.53h-1.76l1.01-4c.13-.52.15-.57.86-.57h2.74c2.2,0,2.76.45,2.76,1.95,0,.44-.07.94-.07,1.02,0,.13.05.29.29.29.25,0,.27-.15.3-.44l.3-2.93c.05-.5-.07-.5-.49-.5h-9.25c-.34,0-.54,0-.54.37,0,.24.18.24.55.24.27,0,.34,0,.64.03.34.03.37.07.37.24,0,.12-.05.29-.07.37l-2.2,8.79c-.17.65-.19.77-1.5.77-.3,0-.5,0-.5.37,0,.24.2.24.5.24h9.5c.42,0,.44,0,.57-.3l1.58-3.58"/><path d="M110.84,70.19c0-.07,0-.12-.4-.53-2.98-3-3.74-7.51-3.74-11.16,0-4.15.9-8.3,3.84-11.28.31-.29.31-.33.31-.4,0-.17-.1-.24-.24-.24-.24,0-2.38,1.62-3.79,4.65-1.22,2.62-1.5,5.27-1.5,7.27,0,1.86.26,4.75,1.57,7.44,1.43,2.93,3.48,4.48,3.72,4.48.14,0,.24-.07.24-.24"/><path d="M121.57,55.56c-.67.02-1.14.55-1.14,1.07,0,.33.21.69.74.69s1.1-.41,1.1-1.34c0-1.07-1.03-2.05-2.84-2.05-3.15,0-4.03,2.43-4.03,3.48,0,1.86,1.76,2.22,2.46,2.36,1.24.24,2.48.5,2.48,1.81,0,.62-.55,2.62-3.41,2.62-.33,0-2.17,0-2.72-1.26.91.12,1.5-.6,1.5-1.26,0-.55-.38-.83-.88-.83-.62,0-1.34.5-1.34,1.57,0,1.36,1.36,2.31,3.41,2.31,3.86,0,4.79-2.88,4.79-3.96,0-.86-.45-1.45-.74-1.74-.64-.67-1.33-.79-2.38-1-.86-.19-1.81-.36-1.81-1.43,0-.69.57-2.15,2.67-2.15.6,0,1.79.17,2.15,1.1"/><path d="M127.58,61.43h1.71c.32,0,.54,0,.54-.37,0-.24-.22-.24-.5-.24h-1.6l.62-2.49c.02-.08.05-.17.05-.24,0-.3-.24-.54-.57-.54-.42,0-.67.29-.79.72-.12.42.1-.39-.64,2.54h-1.72c-.32,0-.54,0-.54.37,0,.23.2.23.5.23h1.6l-.99,3.97c-.1.42-.25,1.03-.25,1.24,0,.99.84,1.6,1.8,1.6,1.87,0,2.92-2.35,2.92-2.57s-.22-.22-.27-.22c-.2,0-.22.03-.35.32-.47,1.06-1.33,2-2.25,2-.35,0-.59-.22-.59-.82,0-.17.07-.52.1-.69l1.21-4.82"/><path d="M138.74,58.51c0-1.86-.26-4.74-1.57-7.44-1.43-2.93-3.48-4.48-3.72-4.48-.14,0-.24.1-.24.24,0,.07,0,.12.45.55,2.34,2.36,3.7,6.15,3.7,11.13,0,4.08-.88,8.27-3.84,11.28-.31.29-.31.33-.31.4,0,.14.1.24.24.24.24,0,2.38-1.62,3.79-4.65,1.22-2.62,1.5-5.27,1.5-7.27"/></g><ellipse class="cls-8" cx="333.46" cy="130.21" rx="44.61" ry="15.72"/><polyline class="cls-8" points="288.85 130.21 288.85 66.69 378.08 66.69 378.08 130.21"/><path class="cls-8" d="M378.08,110.42c0,8.68-19.97,15.72-44.61,15.72s-44.61-7.04-44.61-15.72"/><path class="cls-8" d="M378.08,88.55c0,8.68-19.97,15.72-44.61,15.72s-44.61-7.04-44.61-15.72"/><ellipse class="cls-8" cx="333.46" cy="66.69" rx="44.61" ry="15.72"/><polygon class="cls-3" points="237.11 84.78 237.11 84.78 237.11 84.78 237.11 84.78 237.11 84.78 237.11 84.78 237.11 84.78 237.11 84.78 237.11 84.78 237.11 84.78 237.11 84.78 237.11 84.78 237.11 84.78 237.11 84.78 237.11 84.78 237.11 84.78 237.11 84.78 237.11 84.78 237.11 84.78 237.11 84.78 237.11 84.78 237.11 84.78 237.11 84.78 237.11 84.78 237.11 84.78 237.11 84.78 237.11 84.78 237.11 84.78 237.11 84.78 237.11 84.78 237.11 84.78 237.11 84.78 237.11 84.78 237.11 84.78 237.11 84.78 237.11 84.78 237.11 84.78 237.11 84.78 237.11 84.78 237.11 84.78 237.11 84.78 237.11 84.78 237.11 84.78 237.11 84.78 237.11 84.78 237.11 84.78 237.11 84.78 237.11 84.78 237.11 84.78 237.11 84.78 237.11 84.78 237.11 84.78 237.11 84.78 237.11 84.78 237.11 84.78 237.11 84.78 237.11 84.78 237.11 84.78 237.11 84.78 237.11 84.78 237.11 84.78 237.11 84.78 237.11 84.78 237.11 84.78 237.11 84.78 237.11 84.78 237.11 84.78 237.11 84.78 237.11 84.78 237.11 84.78 237.11 84.78 237.11 84.78 237.11 84.78 237.11 84.78 237.11 84.78 237.11 84.78 237.11 84.78 237.11 84.78 237.11 84.78 237.11 84.78 237.11 84.78 237.11 84.78 237.11 84.78 237.11 84.78 237.11 84.78 237.11 84.78 237.11 84.78 237.11 84.78"/><g class="cls-12"><path d="M210.57,95.81c0-.07,0-.12-.4-.53-2.98-3-3.74-7.51-3.74-11.16,0-4.15.9-8.3,3.84-11.28.31-.29.31-.33.31-.4,0-.17-.1-.24-.24-.24-.24,0-2.38,1.62-3.79,4.65-1.22,2.62-1.5,5.27-1.5,7.27,0,1.86.26,4.75,1.57,7.44,1.43,2.93,3.48,4.48,3.72,4.48.14,0,.24-.07.24-.24"/><path d="M221.3,81.17c-.67.02-1.14.55-1.14,1.07,0,.33.21.69.74.69s1.1-.41,1.1-1.34c0-1.07-1.03-2.05-2.84-2.05-3.15,0-4.03,2.43-4.03,3.48,0,1.86,1.76,2.22,2.46,2.36,1.24.24,2.48.5,2.48,1.81,0,.62-.55,2.62-3.41,2.62-.33,0-2.17,0-2.72-1.26.91.12,1.5-.6,1.5-1.26,0-.55-.38-.83-.88-.83-.62,0-1.34.5-1.34,1.57,0,1.36,1.36,2.31,3.41,2.31,3.86,0,4.79-2.88,4.79-3.96,0-.86-.45-1.45-.74-1.74-.64-.67-1.33-.79-2.38-1-.86-.19-1.81-.36-1.81-1.43,0-.69.57-2.15,2.67-2.15.6,0,1.79.17,2.15,1.1"/><path d="M227.32,87.05h1.71c.32,0,.54,0,.54-.37,0-.24-.22-.24-.5-.24h-1.6l.62-2.49c.02-.08.05-.17.05-.24,0-.3-.24-.54-.57-.54-.42,0-.67.29-.79.72-.12.42.1-.39-.64,2.54h-1.72c-.32,0-.54,0-.54.37,0,.23.2.23.5.23h1.6l-.99,3.97c-.1.42-.25,1.03-.25,1.24,0,.99.84,1.6,1.8,1.6,1.87,0,2.92-2.35,2.92-2.57s-.22-.22-.27-.22c-.2,0-.22.03-.35.32-.47,1.06-1.33,2-2.25,2-.35,0-.59-.22-.59-.82,0-.17.07-.52.1-.69l1.21-4.82"/><path d="M236.42,90.06c0-1.57-.6-2.5-1.52-2.5-.79,0-1.26.6-1.26,1.26s.48,1.26,1.26,1.26c.29,0,.6-.1.83-.31.07-.05.1-.07.12-.07s.05.02.05.36c0,1.76-.83,3.19-1.62,3.98-.26.26-.26.31-.26.38,0,.17.12.26.24.26.26,0,2.17-1.84,2.17-4.63"/><path d="M249.62,87.25c-.12.43-.12.48-.48.88-1.05,1.31-2.03,1.69-2.69,1.69-1.19,0-1.53-1.31-1.53-2.24,0-1.19.76-4.12,1.31-5.22.74-1.41,1.81-2.29,2.77-2.29,1.55,0,1.88,1.95,1.88,2.1s-.05.29-.07.41l-1.19,4.67M251.17,81.07c-.43-.88-1.12-1.53-2.19-1.53-2.79,0-5.75,3.5-5.75,6.99,0,2.24,1.31,3.81,3.17,3.81.48,0,1.67-.1,3.1-1.79.19,1,1.03,1.79,2.17,1.79.83,0,1.38-.55,1.76-1.31.4-.86.72-2.31.72-2.36,0-.24-.22-.24-.29-.24-.24,0-.26.1-.33.43-.41,1.55-.83,2.96-1.81,2.96-.64,0-.72-.62-.72-1.1,0-.52.05-.71.31-1.76.26-1,.31-1.24.53-2.15l.86-3.34c.17-.67.17-.72.17-.81,0-.4-.29-.64-.69-.64-.57,0-.93.52-1,1.05Z"/><path d="M259.02,87.05h1.71c.32,0,.54,0,.54-.37,0-.24-.22-.24-.5-.24h-1.6l.62-2.49c.02-.08.05-.17.05-.24,0-.3-.24-.54-.57-.54-.42,0-.67.29-.79.72-.12.42.1-.39-.64,2.54h-1.72c-.32,0-.54,0-.54.37,0,.23.2.23.5.23h1.6l-.99,3.97c-.1.42-.25,1.03-.25,1.24,0,.99.84,1.6,1.8,1.6,1.87,0,2.92-2.35,2.92-2.57s-.22-.22-.27-.22c-.2,0-.22.03-.35.32-.47,1.06-1.33,2-2.25,2-.35,0-.59-.22-.59-.82,0-.17.07-.52.1-.69l1.21-4.82"/><path d="M270.17,84.13c0-1.86-.26-4.74-1.57-7.44-1.43-2.93-3.48-4.48-3.72-4.48-.14,0-.24.1-.24.24,0,.07,0,.12.45.55,2.34,2.36,3.7,6.15,3.7,11.13,0,4.08-.88,8.27-3.84,11.28-.31.29-.31.33-.31.4,0,.14.1.24.24.24.24,0,2.38-1.62,3.79-4.65,1.22-2.62,1.5-5.27,1.5-7.27"/></g><polygon class="cls-3" points="332.47 67.26 332.47 67.26 332.47 67.26 332.47 67.26 332.47 67.26 332.47 67.26 332.47 67.26 332.47 67.26 332.47 67.26 332.47 67.26 332.47 67.26 332.47 67.26 332.47 67.26 332.47 67.26 332.47 67.26 332.47 67.26 332.47 67.26 332.47 67.26 332.47 67.26 332.47 67.26 332.47 67.26 332.47 67.26 332.47 67.26 332.47 67.26 332.47 67.26 332.47 67.26 332.47 67.26 332.47 67.26 332.47 67.26 332.47 67.26 332.47 67.26 332.47 67.26 332.47 67.26 332.47 67.26 332.47 67.26 332.47 67.26 332.47 67.26 332.47 67.26 332.47 67.26 332.47 67.26 332.47 67.26 332.47 67.26 332.47 67.26 332.47 67.26 332.47 67.26 332.47 67.26 332.47 67.26 332.47 67.26 332.47 67.26 332.47 67.26 332.47 67.26 332.47 67.26 332.47 67.26 332.47 67.26 332.47 67.26 332.47 67.26 332.47 67.26 332.47 67.26 332.47 67.26 332.47 67.26 332.47 67.26 332.47 67.26 332.47 67.26 332.47 67.26 332.47 67.26 332.47 67.26 332.47 67.26 332.47 67.26 332.47 67.26 332.47 67.26 332.47 67.26 332.47 67.26 332.47 67.26 332.47 67.26 332.47 67.26 332.47 67.26 332.47 67.26 332.47 67.26 332.47 67.26 332.47 67.26 332.47 67.26 332.47 67.26 332.47 67.26 332.47 67.26 332.47 67.26 332.47 67.26 332.47 67.26"/><g class="cls-15"><path d="M329.45,73.28c2.72-6.65,3.22-10.8,3.55-13.66,1.6,0,7.7,0,7.7,5.25,0,4.67-4.2,8.42-9.97,8.42h-1.29M329.33,74.59c5.55,0,13.4-4.24,13.4-10.75,0-2.12-1-3.46-2.17-4.2-2.05-1.33-4.24-1.33-6.51-1.33-2.05,0-3.46,0-5.46.86-3.17,1.41-3.62,3.39-3.62,3.58,0,.14.1.19.24.19.38,0,.93-.33,1.12-.45.5-.33.57-.48.72-.93.33-.95,1-1.79,4-1.93-.38,4.98-1.6,9.54-3.27,13.71-.88.31-1.45.86-1.45,1.1,0,.14.02.17.55.17h2.46Z"/></g><text class="cls-11" transform="translate(302.46 165.07)"><tspan x="0" y="0">Dataset</tspan></text><rect class="cls-9" x="431.41" y="41.16" width="46.99" height="46.99"/><polygon class="cls-3" points="454.9 64.65 454.9 64.65 454.9 64.65 454.9 64.65 454.9 64.65 454.9 64.65 454.9 64.65 454.9 64.65 454.9 64.65 454.9 64.65 454.9 64.65 454.9 64.65 454.9 64.65 454.9 64.65 454.9 64.65 454.9 64.65 454.9 64.65 454.9 64.65 454.9 64.65 454.9 64.65 454.9 64.65 454.9 64.65 454.9 64.65 454.9 64.65 454.9 64.65 454.9 64.65 454.9 64.65 454.9 64.65 454.9 64.65 454.9 64.65 454.9 64.65 454.9 64.65 454.9 64.65 454.9 64.65 454.9 64.65 454.9 64.65 454.9 64.65 454.9 64.65 454.9 64.65 454.9 64.65 454.9 64.65 454.9 64.65 454.9 64.65 454.9 64.65 454.9 64.65 454.9 64.65 454.9 64.65 454.9 64.65 454.9 64.65 454.9 64.65 454.9 64.65 454.9 64.65 454.9 64.65 454.9 64.65 454.9 64.65 454.9 64.65 454.9 64.65 454.9 64.65 454.9 64.65 454.9 64.65 454.9 64.65 454.9 64.65 454.9 64.65 454.9 64.65 454.9 64.65 454.9 64.65 454.9 64.65 454.9 64.65 454.9 64.65 454.9 64.65 454.9 64.65 454.9 64.65 454.9 64.65 454.9 64.65 454.9 64.65 454.9 64.65 454.9 64.65 454.9 64.65 454.9 64.65 454.9 64.65 454.9 64.65 454.9 64.65 454.9 64.65 454.9 64.65 454.9 64.65 454.9 64.65 454.9 64.65"/><g class="cls-13"><path d="M449.92,59.46h2.7c-.79,3.53-1,4.55-1,6.15,0,.36,0,1,.19,1.81.24,1.05.5,1.19.86,1.19.48,0,.98-.43.98-.91,0-.14,0-.19-.14-.53-.69-1.72-.69-3.27-.69-3.93,0-1.26.17-2.55.43-3.79h2.72c.31,0,1.17,0,1.17-.81,0-.57-.5-.57-.95-.57h-7.99c-.53,0-1.43,0-2.48,1.12-.83.93-1.45,2.03-1.45,2.15,0,.02,0,.24.29.24.19,0,.24-.1.38-.29,1.17-1.84,2.55-1.84,3.03-1.84h1.36c-.76,2.88-2.05,5.77-3.05,7.94-.19.36-.19.4-.19.57,0,.45.38.64.69.64.72,0,.91-.67,1.19-1.55.33-1.1.33-1.14.64-2.34l1.33-5.27"/><path d="M463.99,66.42c-.47,1.83-.86,2.74-1.36,3.56-.52.88-1.19,1.66-1.93,1.66-.92,0-1.08-1.28-1.08-2.18,0-1.11.32-2.42.49-3.04h3.88M460.26,65.82c.86-3.63,2.3-5.23,3.29-5.23,1.08,0,1.08,1.87,1.08,2.19,0,.65-.13,1.63-.49,3.04h-3.88ZM465.89,63.77c0-1.76-.67-3.65-2.32-3.65-2.52,0-5.21,4.5-5.21,8.35,0,2,.77,3.65,2.32,3.65,2.55,0,5.21-4.59,5.21-8.36Z"/></g><rect class="cls-9" x="431.41" y="115.06" width="46.99" height="46.99"/><polygon class="cls-3" points="454.9 138.56 454.9 138.56 454.9 138.56 454.9 138.56 454.9 138.56 454.9 138.56 454.9 138.56 454.9 138.56 454.9 138.56 454.9 138.56 454.9 138.56 454.9 138.56 454.9 138.56 454.9 138.56 454.9 138.56 454.9 138.56 454.9 138.56 454.9 138.56 454.9 138.56 454.9 138.56 454.9 138.56 454.9 138.56 454.9 138.56 454.9 138.56 454.9 138.56 454.9 138.56 454.9 138.56 454.9 138.56 454.9 138.56 454.9 138.56 454.9 138.56 454.9 138.56 454.9 138.56 454.9 138.56 454.9 138.56 454.9 138.56 454.9 138.56 454.9 138.56 454.9 138.56 454.9 138.56 454.9 138.56 454.9 138.56 454.9 138.56 454.9 138.56 454.9 138.56 454.9 138.56 454.9 138.56 454.9 138.56 454.9 138.56 454.9 138.56 454.9 138.56 454.9 138.56 454.9 138.56 454.9 138.56 454.9 138.56 454.9 138.56 454.9 138.56 454.9 138.56 454.9 138.56 454.9 138.56 454.9 138.56 454.9 138.56 454.9 138.56 454.9 138.56 454.9 138.56 454.9 138.56 454.9 138.56 454.9 138.56 454.9 138.56 454.9 138.56 454.9 138.56 454.9 138.56 454.9 138.56 454.9 138.56 454.9 138.56 454.9 138.56 454.9 138.56 454.9 138.56 454.9 138.56 454.9 138.56 454.9 138.56 454.9 138.56 454.9 138.56 454.9 138.56 454.9 138.56 454.9 138.56 454.9 138.56 454.9 138.56 454.9 138.56"/><polygon class="cls-3" points="454.9 138.56 454.9 138.56 454.9 138.56 454.9 138.56 454.9 138.56 454.9 138.56 454.9 138.56 454.9 138.56 454.9 138.56 454.9 138.56 454.9 138.56 454.9 138.56 454.9 138.56 454.9 138.56 454.9 138.56 454.9 138.56 454.9 138.56 454.9 138.56 454.9 138.56 454.9 138.56 454.9 138.56 454.9 138.56 454.9 138.56 454.9 138.56 454.9 138.56 454.9 138.56 454.9 138.56 454.9 138.56 454.9 138.56 454.9 138.56 454.9 138.56 454.9 138.56 454.9 138.56 454.9 138.56 454.9 138.56 454.9 138.56 454.9 138.56 454.9 138.56 454.9 138.56 454.9 138.56 454.9 138.56 454.9 138.56 454.9 138.56 454.9 138.56 454.9 138.56 454.9 138.56 454.9 138.56 454.9 138.56 454.9 138.56 454.9 138.56 454.9 138.56 454.9 138.56 454.9 138.56 454.9 138.56 454.9 138.56 454.9 138.56 454.9 138.56 454.9 138.56 454.9 138.56 454.9 138.56 454.9 138.56 454.9 138.56 454.9 138.56 454.9 138.56 454.9 138.56 454.9 138.56 454.9 138.56 454.9 138.56 454.9 138.56 454.9 138.56 454.9 138.56 454.9 138.56 454.9 138.56 454.9 138.56 454.9 138.56 454.9 138.56 454.9 138.56 454.9 138.56 454.9 138.56 454.9 138.56 454.9 138.56 454.9 138.56 454.9 138.56 454.9 138.56 454.9 138.56 454.9 138.56 454.9 138.56 454.9 138.56 454.9 138.56"/><g class="cls-14"><path d="M440.82,141.2c.97-1.5,1.27-2.65,1.5-3.59.63-2.47,1.31-4.61,2.41-5.85.21-.23.36-.39.93-.39,1.23,0,1.27,1.23,1.27,1.48,0,.32-.09.57-.09.66,0,.12.11.12.12.12.29,0,.77-.2,1.22-.52.32-.25.48-.43.48-1.16,0-.97-.5-1.7-1.5-1.7-.57,0-2.15.14-3.9,1.91-1.43,1.47-2.27,4.68-2.61,6.03-.32,1.23-.47,1.79-1,2.86-.12.22-.59,1-.84,1.23-.48.45-.66.77-.66.86,0,.04.04.11.16.11.07,0,.45-.07.91-.38.3-.18.34-.21.75-.64.89.02,1.52.18,2.65.5.91.25,1.82.52,2.74.52,1.45,0,2.91-1.09,3.49-1.88.36-.48.47-.93.47-.98,0-.12-.11-.12-.13-.12-.29,0-.71.2-1.02.41-.48.3-.52.41-.63.72-.09.29-.2.43-.27.54-.14.21-.16.21-.43.21-.86,0-1.75-.27-2.93-.59-.5-.14-1.48-.43-2.38-.43-.23,0-.48.02-.72.07"/><path d="M455.82,147.15c0-.05,0-.09-.3-.39-2.23-2.25-2.81-5.63-2.81-8.37,0-3.11.68-6.22,2.88-8.46.23-.21.23-.25.23-.3,0-.12-.07-.18-.18-.18-.18,0-1.79,1.22-2.84,3.49-.91,1.97-1.13,3.95-1.13,5.45,0,1.4.2,3.56,1.18,5.58,1.07,2.2,2.61,3.36,2.79,3.36.11,0,.18-.05.18-.18"/><path d="M463.12,136.94c-.2.82-.57,2.34-1.25,3.63-.62,1.22-1.3,2.09-2.07,2.09-.59,0-.97-.52-.97-2.18,0-.75.11-1.79.57-3.54h3.72M459.55,136.37c.3-1.14.66-2.57,1.38-3.84.48-.88,1.14-1.88,1.95-1.88.88,0,.98,1.14.98,2.16,0,.88-.14,1.79-.57,3.56h-3.74ZM465.04,133.92c0-1.18-.32-3.67-2.15-3.67-2.49,0-5.24,5.04-5.24,9.14,0,1.68.52,3.67,2.15,3.67,2.52,0,5.24-5.13,5.24-9.14Z"/><path d="M470.97,138.39c0-1.4-.2-3.56-1.18-5.58-1.07-2.2-2.61-3.36-2.79-3.36-.11,0-.18.07-.18.18,0,.05,0,.09.34.41,1.75,1.77,2.77,4.61,2.77,8.35,0,3.06-.66,6.2-2.88,8.46-.23.21-.23.25-.23.3,0,.11.07.18.18.18.18,0,1.79-1.22,2.84-3.49.91-1.97,1.13-3.95,1.13-5.45"/></g><text class="cls-11" transform="translate(11.8 203.57)"><tspan x="0" y="0">Collect Demonstrations</tspan></text><text class="cls-11" transform="translate(408.9 203.57)"><tspan class="cls-19" x="0" y="0">T</tspan><tspan x="8.68" y="0">rain Policy</tspan></text></g><g id="Top"><line class="cls-5" x1="80.96" y1="114.8" x2="80.96" y2="90.92"/><polygon class="cls-10" points="83.87 92.9 80.96 82.06 78.06 92.9 83.87 92.9"/><line class="cls-5" x1="131.33" y1="105.94" x2="131.33" y2="82.06"/><polygon class="cls-10" points="134.24 103.96 131.33 114.8 128.43 103.96 134.24 103.96"/><polygon class="cls-3" points="145.99 98.45 145.99 98.45 145.99 98.45 145.99 98.45 145.99 98.45 145.99 98.45 145.99 98.45 145.99 98.45 145.99 98.45 145.99 98.45 145.99 98.45 145.99 98.45 145.99 98.45 145.99 98.45 145.99 98.45 145.99 98.45 145.99 98.45 145.99 98.45 145.99 98.45 145.99 98.45 145.99 98.45 145.99 98.45 145.99 98.45 145.99 98.45 145.99 98.45 145.99 98.45 145.99 98.45 145.99 98.45 145.99 98.45 145.99 98.45 145.99 98.45 145.99 98.45 145.99 98.45 145.99 98.45 145.99 98.45 145.99 98.45 145.99 98.45 145.99 98.45 145.99 98.45 145.99 98.45 145.99 98.45 145.99 98.45 145.99 98.45 145.99 98.45 145.99 98.45 145.99 98.45 145.99 98.45 145.99 98.45 145.99 98.45 145.99 98.45 145.99 98.45 145.99 98.45 145.99 98.45 145.99 98.45 145.99 98.45 145.99 98.45 145.99 98.45 145.99 98.45 145.99 98.45 145.99 98.45 145.99 98.45 145.99 98.45 145.99 98.45 145.99 98.45 145.99 98.45 145.99 98.45 145.99 98.45 145.99 98.45 145.99 98.45 145.99 98.45 145.99 98.45 145.99 98.45 145.99 98.45 145.99 98.45 145.99 98.45 145.99 98.45 145.99 98.45 145.99 98.45 145.99 98.45 145.99 98.45 145.99 98.45 145.99 98.45 145.99 98.45 145.99 98.45 145.99 98.45 145.99 98.45"/><g class="cls-17"><path d="M143.81,99.3c-.12.43-.12.48-.48.88-1.05,1.31-2.03,1.69-2.69,1.69-1.19,0-1.53-1.31-1.53-2.24,0-1.19.76-4.12,1.31-5.22.74-1.41,1.81-2.29,2.77-2.29,1.55,0,1.88,1.95,1.88,2.1s-.05.29-.07.41l-1.19,4.67M145.35,93.12c-.43-.88-1.12-1.53-2.19-1.53-2.79,0-5.75,3.5-5.75,6.99,0,2.24,1.31,3.81,3.17,3.81.48,0,1.67-.1,3.1-1.79.19,1,1.03,1.79,2.17,1.79.83,0,1.38-.55,1.76-1.31.4-.86.72-2.31.72-2.36,0-.24-.22-.24-.29-.24-.24,0-.26.1-.33.43-.41,1.55-.83,2.96-1.81,2.96-.64,0-.72-.62-.72-1.1,0-.52.05-.71.31-1.76.26-1,.31-1.24.53-2.15l.86-3.34c.17-.67.17-.72.17-.81,0-.4-.29-.64-.69-.64-.57,0-.93.52-1,1.05Z"/><path d="M153.3,99.09h1.71c.32,0,.54,0,.54-.37,0-.24-.22-.24-.5-.24h-1.6l.62-2.49c.02-.08.05-.17.05-.24,0-.3-.24-.54-.57-.54-.42,0-.67.29-.79.72-.12.42.1-.39-.64,2.54h-1.72c-.32,0-.54,0-.54.37,0,.23.2.23.5.23h1.6l-.99,3.97c-.1.42-.25,1.03-.25,1.24,0,.99.84,1.6,1.8,1.6,1.87,0,2.92-2.35,2.92-2.57s-.22-.22-.27-.22c-.2,0-.22.03-.35.32-.47,1.06-1.33,2-2.25,2-.35,0-.59-.22-.59-.82,0-.17.07-.52.1-.69l1.21-4.83"/></g><polygon class="cls-3" points="179.67 106.42 179.67 106.42 179.67 106.42 179.67 106.42 179.67 106.42 179.67 106.42 179.67 106.42 179.67 106.42 179.67 106.42 179.67 106.42 179.67 106.42 179.67 106.42 179.67 106.42 179.67 106.42 179.67 106.42 179.67 106.42 179.67 106.42 179.67 106.42 179.67 106.42 179.67 106.42 179.67 106.42 179.67 106.42 179.67 106.42 179.67 106.42 179.67 106.42 179.67 106.42 179.67 106.42 179.67 106.42 179.67 106.42 179.67 106.42 179.67 106.42 179.67 106.42 179.67 106.42 179.67 106.42 179.67 106.42 179.67 106.42 179.67 106.42 179.67 106.42 179.67 106.42 179.67 106.42 179.67 106.42 179.67 106.42 179.67 106.42 179.67 106.42 179.67 106.42 179.67 106.42 179.67 106.42 179.67 106.42 179.67 106.42 179.67 106.42 179.67 106.42 179.67 106.42 179.67 106.42 179.67 106.42 179.67 106.42 179.67 106.42 179.67 106.42 179.67 106.42 179.67 106.42 179.67 106.42 179.67 106.42 179.67 106.42 179.67 106.42 179.67 106.42 179.67 106.42 179.67 106.42 179.67 106.42 179.67 106.42 179.67 106.42 179.67 106.42 179.67 106.42 179.67 106.42 179.67 106.42 179.67 106.42 179.67 106.42 179.67 106.42 179.67 106.42 179.67 106.42 179.67 106.42 179.67 106.42 179.67 106.42 179.67 106.42 179.67 106.42 179.67 106.42 179.67 106.42 179.67 106.42"/><g class="cls-16"><path d="M68.26,93.22c-.67.02-1.14.55-1.14,1.07,0,.33.21.69.74.69s1.1-.41,1.1-1.34c0-1.07-1.02-2.05-2.84-2.05-3.15,0-4.03,2.43-4.03,3.48,0,1.86,1.76,2.22,2.46,2.36,1.24.24,2.48.5,2.48,1.81,0,.62-.55,2.62-3.41,2.62-.33,0-2.17,0-2.72-1.26.91.12,1.5-.6,1.5-1.26,0-.55-.38-.83-.88-.83-.62,0-1.34.5-1.34,1.57,0,1.36,1.36,2.31,3.41,2.31,3.86,0,4.79-2.88,4.79-3.96,0-.86-.45-1.45-.74-1.74-.64-.67-1.33-.79-2.38-1-.86-.19-1.81-.36-1.81-1.43,0-.69.57-2.15,2.67-2.15.6,0,1.79.17,2.15,1.1"/><path d="M74.27,99.09h1.71c.32,0,.54,0,.54-.37,0-.24-.22-.24-.5-.24h-1.6l.62-2.49c.02-.08.05-.17.05-.24,0-.3-.24-.54-.57-.54-.42,0-.67.29-.79.72-.12.42.1-.39-.64,2.54h-1.72c-.32,0-.54,0-.54.37,0,.23.2.23.5.23h1.6l-.99,3.97c-.1.42-.25,1.03-.25,1.24,0,.99.84,1.6,1.8,1.6,1.87,0,2.93-2.35,2.93-2.57s-.22-.22-.27-.22c-.2,0-.22.03-.35.32-.47,1.06-1.33,2-2.25,2-.35,0-.59-.22-.59-.82,0-.17.07-.52.1-.69l1.21-4.83"/></g><line class="cls-5" x1="279.99" y1="101.41" x2="195.1" y2="101.41"/><polygon class="cls-10" points="278.01 98.5 288.85 101.41 278.01 104.31 278.01 98.5"/><line class="cls-5" x1="406.54" y1="101.41" x2="378.08" y2="101.41"/><polygon class="cls-10" points="404.56 98.5 415.4 101.41 404.56 104.31 404.56 98.5"/><line class="cls-5" x1="443.4" y1="106.01" x2="443.4" y2="87.95"/><polygon class="cls-10" points="446.31 104.03 443.4 114.87 440.5 104.03 446.31 104.03"/><line class="cls-5" x1="466.4" y1="96.81" x2="466.4" y2="114.87"/><polygon class="cls-10" points="463.5 98.79 466.4 87.95 469.31 98.79 463.5 98.79"/></g></svg>