<?xml version="1.0" encoding="UTF-8"?><svg xmlns="http://www.w3.org/2000/svg" xmlns:xlink="http://www.w3.org/1999/xlink" viewBox="0 0 269 378.6"><defs><style>.cls-1,.cls-2,.cls-3,.cls-4,.cls-5,.cls-6{fill:none;}.cls-2,.cls-3,.cls-7,.cls-4,.cls-5,.cls-6,.cls-8{stroke-miterlimit:10;}.cls-2,.cls-4{stroke-linecap:square;}.cls-2,.cls-4,.cls-5,.cls-6,.cls-8{stroke:#1d1d1b;}.cls-3{opacity:0;stroke:#000;}.cls-9,.cls-10,.cls-11{fill:#1d1d1b;}.cls-7{fill:#ededed;stroke:#575756;}.cls-12{clip-path:url(#clippath-1);}.cls-13{clip-path:url(#clippath-4);}.cls-14{clip-path:url(#clippath-2);}.cls-15{clip-path:url(#clippath-7);}.cls-16{clip-path:url(#clippath-6);}.cls-17{clip-path:url(#clippath-9);}.cls-18{clip-path:url(#clippath-8);}.cls-19{clip-path:url(#clippath-5);}.cls-20,.cls-8{fill:#fff;}.cls-4{stroke-dasharray:9.76 9.76;}.cls-5{stroke-dasharray:6.41 6.41;}.cls-21{letter-spacing:-.11em;}.cls-22{letter-spacing:-.02em;}.cls-23{letter-spacing:-.03em;}.cls-10{font-size:18px;}.cls-10,.cls-11{font-family:HelveticaNeue, 'Helvetica Neue';}.cls-11{font-size:15px;}</style><clipPath id="clippath-1"><rect class="cls-1" x="125.41" y="229.61" width="23" height="18.8"/></clipPath><clipPath id="clippath-2"><rect class="cls-1" x="125.09" y="97.26" width="19" height="17"/></clipPath><clipPath id="clippath-4"><rect class="cls-1" x="124.29" y="317.65" width="24.14" height="24"/></clipPath><clipPath id="clippath-5"><rect class="cls-1" x="229.75" y="129" width="19" height="15"/></clipPath><clipPath id="clippath-6"><rect class="cls-1" x="21.42" y="129" width="17" height="15"/></clipPath><clipPath id="clippath-7"><rect class="cls-1" x="137.79" y="64.84" width="113" height="19"/></clipPath><clipPath id="clippath-8"><rect class="cls-1" x="89.97" y="280.07" width="10" height="17"/></clipPath><clipPath id="clippath-9"><rect class="cls-1" x="174.2" y="280.74" width="10" height="17"/></clipPath></defs><g id="Base"><rect class="cls-20" width="269" height="377.8" rx="12" ry="12"/></g><g id="Components"><rect class="cls-8" x="111.09" y="215.51" width="46.99" height="46.99"/><polygon class="cls-3" points="134.59 239.01 134.59 239.01 134.59 239.01 134.59 239.01 134.59 239.01 134.59 239.01 134.59 239.01 134.59 239.01 134.59 239.01 134.59 239.01 134.59 239.01 134.59 239.01 134.59 239.01 134.59 239.01 134.59 239.01 134.59 239.01 134.59 239.01 134.59 239.01 134.59 239.01 134.59 239.01 134.59 239.01 134.59 239.01 134.59 239.01 134.59 239.01 134.59 239.01 134.59 239.01 134.59 239.01 134.59 239.01 134.59 239.01 134.59 239.01 134.59 239.01 134.59 239.01 134.59 239.01 134.59 239.01 134.59 239.01 134.59 239.01 134.59 239.01 134.59 239.01 134.59 239.01 134.59 239.01 134.59 239.01 134.59 239.01 134.59 239.01 134.59 239.01 134.59 239.01 134.59 239.01 134.59 239.01 134.59 239.01 134.59 239.01 134.59 239.01 134.59 239.01 134.59 239.01 134.59 239.01 134.59 239.01 134.59 239.01 134.59 239.01 134.59 239.01 134.59 239.01 134.59 239.01 134.59 239.01 134.59 239.01 134.59 239.01 134.59 239.01 134.59 239.01 134.59 239.01 134.59 239.01 134.59 239.01 134.59 239.01 134.59 239.01 134.59 239.01 134.59 239.01 134.59 239.01 134.59 239.01 134.59 239.01 134.59 239.01 134.59 239.01 134.59 239.01 134.59 239.01 134.59 239.01 134.59 239.01 134.59 239.01 134.59 239.01 134.59 239.01 134.59 239.01 134.59 239.01 134.59 239.01 134.59 239.01"/><polygon class="cls-3" points="134.46 241.3 134.46 241.29 134.46 241.29 134.46 241.29 134.46 241.29 134.46 241.29 134.46 241.29 134.46 241.29 134.46 241.29 134.46 241.29 134.46 241.29 134.46 241.29 134.46 241.29 134.46 241.29 134.46 241.29 134.46 241.29 134.46 241.29 134.46 241.29 134.46 241.29 134.46 241.29 134.46 241.29 134.46 241.29 134.46 241.29 134.46 241.29 134.46 241.29 134.46 241.29 134.46 241.29 134.46 241.29 134.46 241.29 134.46 241.29 134.46 241.29 134.46 241.29 134.46 241.29 134.46 241.29 134.46 241.29 134.46 241.29 134.46 241.29 134.46 241.29 134.46 241.29 134.46 241.29 134.46 241.29 134.46 241.29 134.46 241.29 134.46 241.29 134.46 241.29 134.46 241.29 134.46 241.29 134.46 241.29 134.46 241.29 134.46 241.29 134.46 241.29 134.46 241.29 134.46 241.29 134.46 241.29 134.46 241.29 134.46 241.29 134.46 241.29 134.46 241.29 134.46 241.29 134.46 241.29 134.46 241.29 134.46 241.29 134.46 241.29 134.46 241.29 134.46 241.29 134.46 241.29 134.46 241.29 134.46 241.29 134.46 241.29 134.46 241.29 134.46 241.29 134.46 241.29 134.46 241.29 134.46 241.29 134.46 241.29 134.46 241.29 134.46 241.29 134.46 241.29 134.46 241.29 134.46 241.29 134.46 241.29 134.46 241.29 134.46 241.29 134.46 241.29 134.46 241.29 134.46 241.29 134.46 241.3"/><g class="cls-12"><path d="M130.97,242.36c-.25,0-.82,0-.82-.77,0-.72.68-1.43,1.43-1.43s1.09.43,1.09,1.52c0,.27-.02.29-.2.36-.46.2-1,.32-1.5.32M129.86,242.16c-1.39-.55-2-1.95-2-3.56,0-1.23.46-3.77,1.82-5.7,1.3-1.82,2.99-2.65,4.29-2.65,1.79,0,3.09,1.4,3.09,3.79,0,1.79-.91,5.97-3.92,7.65-.09-.62-.27-1.93-1.57-1.93-.95,0-1.82.9-1.82,1.82,0,.36.11.55.11.57ZM133.24,242.3c2.77-1.05,5.4-4.24,5.4-7.69,0-2.88-1.9-4.81-4.56-4.81-3.86,0-7.8,4.06-7.8,8.23,0,2.97,2,4.78,4.58,4.78.45,0,1.05-.07,1.75-.27-.07,1.11-.07,1.14-.07,1.38,0,.57,0,1.97,1.48,1.97,2.13,0,2.99-3.27,2.99-3.47,0-.12-.12-.18-.2-.18-.14,0-.18.09-.21.2-.43,1.27-1.47,1.72-2.09,1.72-.82,0-1.09-.48-1.27-1.84Z"/><path d="M144.94,239.92c.96.04,1.87.56,1.87,1.75,0,1.37-1.08,3.05-3.11,3.22l1.24-4.97M143.26,244.9c-.97-.05-1.85-.58-1.85-1.75,0-1.25.95-3.02,3.1-3.22l-1.24,4.97ZM145.78,236.57c0-.16-.15-.16-.21-.16-.19,0-.2.06-.25.28l-.71,2.87c-2.22.1-4.11,1.69-4.11,3.37,0,1.42,1.29,2.27,2.68,2.32-.1.39-.19.79-.29,1.18-.15.59-.26,1.05-.26,1.09,0,.15.16.15.2.15.19,0,.2-.04.26-.3l.53-2.11c2.14-.09,4.11-1.67,4.11-3.37,0-1.32-1.15-2.26-2.68-2.32l.74-3Z"/></g><ellipse class="cls-7" cx="134.59" cy="169.28" rx="44.61" ry="15.72"/><polyline class="cls-7" points="89.97 169.28 89.97 105.76 179.2 105.76 179.2 169.28"/><path class="cls-7" d="M179.2,149.49c0,8.68-19.97,15.72-44.61,15.72s-44.61-7.04-44.61-15.72"/><path class="cls-7" d="M179.2,127.62c0,8.68-19.97,15.72-44.61,15.72s-44.61-7.04-44.61-15.72"/><ellipse class="cls-7" cx="134.59" cy="105.76" rx="44.61" ry="15.72"/><g class="cls-14"><path d="M130.57,112.35c2.72-6.65,3.22-10.8,3.55-13.66,1.6,0,7.7,0,7.7,5.25,0,4.67-4.2,8.42-9.97,8.42h-1.29M130.45,113.66c5.55,0,13.4-4.24,13.4-10.75,0-2.12-1-3.46-2.17-4.2-2.05-1.33-4.24-1.33-6.51-1.33-2.05,0-3.46,0-5.46.86-3.17,1.41-3.62,3.39-3.62,3.58,0,.14.1.19.24.19.38,0,.93-.33,1.12-.45.5-.33.57-.48.72-.93.33-.95,1-1.79,4-1.93-.38,4.98-1.6,9.54-3.27,13.71-.88.31-1.45.86-1.45,1.1,0,.14.02.17.55.17h2.46Z"/></g><rect class="cls-8" x="71.8" y="11.57" width="125.57" height="46.99"/><text class="cls-10" transform="translate(84.23 40.68)"><tspan x="0" y="0">Envi</tspan><tspan class="cls-22" x="34" y="0">r</tspan><tspan x="39.67" y="0">onment</tspan></text><rect class="cls-8" x="112.65" y="304.87" width="46.99" height="46.99"/><polygon class="cls-3" points="136.14 328.37 136.14 328.37 136.14 328.37 136.14 328.37 136.14 328.37 136.14 328.37 136.14 328.37 136.14 328.37 136.14 328.37 136.14 328.37 136.14 328.37 136.14 328.37 136.14 328.37 136.14 328.37 136.14 328.37 136.14 328.37 136.14 328.37 136.14 328.37 136.14 328.37 136.14 328.37 136.14 328.37 136.14 328.37 136.14 328.37 136.14 328.37 136.14 328.37 136.14 328.37 136.14 328.37 136.14 328.37 136.14 328.37 136.14 328.37 136.14 328.37 136.14 328.37 136.14 328.37 136.14 328.37 136.14 328.37 136.14 328.37 136.14 328.37 136.14 328.37 136.14 328.37 136.14 328.37 136.14 328.37 136.14 328.37 136.14 328.37 136.14 328.37 136.14 328.37 136.14 328.37 136.14 328.37 136.14 328.37 136.14 328.37 136.14 328.37 136.14 328.37 136.14 328.37 136.14 328.37 136.14 328.37 136.14 328.37 136.14 328.37 136.14 328.37 136.14 328.37 136.14 328.37 136.14 328.37 136.14 328.37 136.14 328.37 136.14 328.37 136.14 328.37 136.14 328.37 136.14 328.37 136.14 328.37 136.14 328.37 136.14 328.37 136.14 328.37 136.14 328.37 136.14 328.37 136.14 328.37 136.14 328.37 136.14 328.37 136.14 328.37 136.14 328.37 136.14 328.37 136.14 328.37 136.14 328.37 136.14 328.37 136.14 328.37 136.14 328.37 136.14 328.37 136.14 328.37 136.14 328.37 136.14 328.37"/><polygon class="cls-3" points="136.02 330.65 136.02 330.65 136.02 330.65 136.02 330.65 136.02 330.65 136.02 330.65 136.02 330.65 136.02 330.65 136.02 330.65 136.02 330.65 136.02 330.65 136.02 330.65 136.02 330.65 136.02 330.65 136.02 330.65 136.02 330.65 136.02 330.65 136.02 330.65 136.02 330.65 136.02 330.65 136.02 330.65 136.02 330.65 136.02 330.65 136.02 330.65 136.02 330.65 136.02 330.65 136.02 330.65 136.02 330.65 136.02 330.65 136.02 330.65 136.02 330.65 136.02 330.65 136.02 330.65 136.02 330.65 136.02 330.65 136.02 330.65 136.02 330.65 136.02 330.65 136.02 330.65 136.02 330.65 136.02 330.65 136.02 330.65 136.02 330.65 136.02 330.65 136.02 330.65 136.02 330.65 136.02 330.65 136.02 330.65 136.02 330.65 136.02 330.65 136.02 330.65 136.02 330.65 136.02 330.65 136.02 330.65 136.02 330.65 136.02 330.65 136.02 330.65 136.02 330.65 136.02 330.65 136.02 330.65 136.02 330.65 136.02 330.65 136.02 330.65 136.02 330.65 136.02 330.65 136.02 330.65 136.02 330.65 136.02 330.65 136.02 330.65 136.02 330.65 136.02 330.65 136.02 330.65 136.02 330.65 136.02 330.65 136.02 330.65 136.02 330.65 136.02 330.65 136.02 330.65 136.02 330.65 136.02 330.65 136.02 330.65 136.02 330.65 136.02 330.65 136.02 330.65 136.02 330.65 136.02 330.65 136.02 330.65"/><polygon class="cls-3" points="136.98 331.25 136.98 331.25 136.98 331.25 136.98 331.25 136.98 331.25 136.98 331.25 136.98 331.25 136.98 331.25 136.98 331.25 136.98 331.25 136.98 331.25 136.98 331.25 136.98 331.25 136.98 331.25 136.98 331.25 136.98 331.25 136.98 331.25 136.98 331.25 136.98 331.25 136.98 331.25 136.98 331.25 136.98 331.25 136.98 331.25 136.98 331.25 136.98 331.25 136.98 331.25 136.98 331.25 136.98 331.25 136.98 331.25 136.98 331.25 136.98 331.25 136.98 331.25 136.98 331.25 136.98 331.25 136.98 331.25 136.98 331.25 136.98 331.25 136.98 331.25 136.98 331.25 136.98 331.25 136.98 331.25 136.98 331.25 136.98 331.25 136.98 331.25 136.98 331.25 136.98 331.25 136.98 331.25 136.98 331.25 136.98 331.25 136.98 331.25 136.98 331.25 136.98 331.25 136.98 331.25 136.98 331.25 136.98 331.25 136.98 331.25 136.98 331.25 136.98 331.25 136.98 331.25 136.98 331.25 136.98 331.25 136.98 331.25 136.98 331.25 136.98 331.25 136.98 331.25 136.98 331.25 136.98 331.25 136.98 331.25 136.98 331.25 136.98 331.25 136.98 331.25 136.98 331.25 136.98 331.25 136.98 331.25 136.98 331.25 136.98 331.25 136.98 331.25 136.98 331.25 136.98 331.25 136.98 331.25 136.98 331.25 136.98 331.25 136.98 331.25 136.98 331.25 136.98 331.25 136.98 331.25 136.98 331.25 136.98 331.25"/><g class="cls-13"><path d="M129.75,334c-.25,0-.82,0-.82-.77,0-.72.68-1.43,1.43-1.43s1.09.43,1.09,1.52c0,.27-.02.29-.2.36-.46.2-1,.32-1.5.32M128.64,333.8c-1.39-.55-2-1.95-2-3.56,0-1.23.46-3.77,1.82-5.7,1.3-1.82,2.99-2.65,4.29-2.65,1.79,0,3.09,1.4,3.09,3.79,0,1.79-.91,5.97-3.92,7.65-.09-.62-.27-1.93-1.57-1.93-.95,0-1.82.9-1.82,1.83,0,.36.11.55.11.57ZM132.02,333.94c2.77-1.05,5.4-4.24,5.4-7.69,0-2.88-1.9-4.81-4.56-4.81-3.86,0-7.8,4.06-7.8,8.23,0,2.97,2,4.78,4.58,4.78.45,0,1.05-.07,1.75-.27-.07,1.11-.07,1.14-.07,1.38,0,.57,0,1.97,1.48,1.97,2.13,0,2.99-3.27,2.99-3.47,0-.12-.12-.18-.2-.18-.14,0-.18.09-.21.2-.43,1.27-1.47,1.72-2.09,1.72-.82,0-1.09-.48-1.27-1.84Z"/><path d="M144.48,319.07c.09-.36.11-.4.39-.43.06-.01.5-.01.75-.01.76,0,1.09,0,1.4.1.56.17.59.54.59.99,0,.2,0,.36-.09,1.01l-.02.14c0,.12.09.19.21.19.19,0,.21-.11.24-.31l.34-2.39c0-.18-.15-.18-.38-.18h-7.71c-.31,0-.34,0-.43.26l-.79,2.22c-.01.05-.06.16-.06.23,0,.05.03.18.21.18.16,0,.19-.06.26-.3.73-2,1.14-2.13,3.05-2.13h.52c.38,0,.39.01.39.12,0,.01,0,.07-.05.26l-1.65,6.59c-.11.46-.15.59-1.47.59-.45,0-.56,0-.56.28,0,.04.02.18.21.18.35,0,.73-.04,1.08-.04s.73-.01,1.08-.01.78,0,1.13.01c.34.01.71.04,1.05.04.1,0,.29,0,.29-.28,0-.18-.12-.18-.51-.18-.24,0-.49-.01-.73-.02-.43-.04-.45-.09-.45-.24,0-.09,0-.11.05-.29l1.65-6.58"/><path d="M143.71,333.36c.96.04,1.87.56,1.87,1.75,0,1.37-1.08,3.05-3.11,3.22l1.24-4.98M142.03,338.34c-.97-.05-1.85-.58-1.85-1.75,0-1.25.95-3.02,3.1-3.22l-1.24,4.98ZM144.55,330.02c0-.16-.15-.16-.21-.16-.19,0-.2.06-.25.27l-.71,2.87c-2.22.1-4.11,1.69-4.11,3.37,0,1.42,1.29,2.27,2.68,2.32-.1.39-.19.79-.29,1.18-.15.59-.26,1.05-.26,1.09,0,.15.16.15.2.15.19,0,.2-.04.26-.3l.52-2.11c2.14-.09,4.11-1.67,4.11-3.37,0-1.32-1.15-2.26-2.68-2.32l.74-3Z"/></g></g><g id="DataFlow"><g class="cls-19"><path d="M236.59,137.36c-.12.43-.12.48-.48.88-1.05,1.31-2.03,1.69-2.69,1.69-1.19,0-1.53-1.31-1.53-2.24,0-1.19.76-4.12,1.31-5.22.74-1.41,1.81-2.29,2.77-2.29,1.55,0,1.88,1.95,1.88,2.1s-.05.29-.07.41l-1.19,4.67M238.14,131.19c-.43-.88-1.12-1.53-2.19-1.53-2.79,0-5.75,3.5-5.75,6.99,0,2.24,1.31,3.81,3.17,3.81.48,0,1.67-.1,3.1-1.79.19,1,1.03,1.79,2.17,1.79.83,0,1.38-.55,1.76-1.31.4-.86.72-2.31.72-2.36,0-.24-.22-.24-.29-.24-.24,0-.26.1-.33.43-.41,1.55-.83,2.96-1.81,2.96-.64,0-.72-.62-.72-1.1,0-.52.05-.71.31-1.76.26-1,.31-1.24.53-2.15l.86-3.34c.17-.67.17-.72.17-.81,0-.4-.29-.64-.69-.64-.57,0-.93.52-1,1.05Z"/><path d="M246.09,137.16h1.71c.32,0,.54,0,.54-.37,0-.24-.22-.24-.5-.24h-1.6l.62-2.49c.02-.08.05-.17.05-.24,0-.3-.24-.54-.57-.54-.42,0-.67.29-.79.72-.12.42.1-.39-.64,2.54h-1.72c-.32,0-.54,0-.54.37,0,.23.2.23.5.23h1.6l-.99,3.97c-.1.42-.25,1.03-.25,1.24,0,.99.84,1.6,1.8,1.6,1.87,0,2.92-2.35,2.92-2.57s-.22-.22-.27-.22c-.2,0-.22.03-.35.32-.47,1.06-1.33,2-2.25,2-.35,0-.59-.22-.59-.82,0-.17.07-.52.1-.69l1.21-4.83"/></g><line class="cls-6" x1="158.39" y1="238.62" x2="254.39" y2="238.62"/><line class="cls-6" x1="206.23" y1="34.29" x2="253.83" y2="34.29"/><polygon class="cls-9" points="208.21 37.19 197.37 34.29 208.21 31.38 208.21 37.19"/><line class="cls-2" x1="253.83" y1="238.23" x2="253.83" y2="34.29"/><line class="cls-6" x1="102.23" y1="238.23" x2="15.09" y2="238.23"/><polygon class="cls-9" points="100.25 235.32 111.09 238.23 100.25 241.13 100.25 235.32"/><line class="cls-6" x1="71.55" y1="34.29" x2="15.09" y2="34.29"/><line class="cls-2" x1="15.09" y1="238.23" x2="15.09" y2="34.29"/><line class="cls-2" x1="134.74" y1="81.26" x2="134.74" y2="58.56"/><polygon class="cls-9" points="137.64 79.27 134.74 90.11 131.83 79.27 137.64 79.27"/><line class="cls-2" x1="134.59" y1="206.65" x2="134.59" y2="185.87"/><polygon class="cls-9" points="137.49 204.67 134.59 215.51 131.68 204.67 137.49 204.67"/><g class="cls-16"><path d="M29.54,131.28c-.67.02-1.14.55-1.14,1.07,0,.33.21.69.74.69s1.1-.41,1.1-1.34c0-1.07-1.02-2.05-2.84-2.05-3.15,0-4.03,2.43-4.03,3.48,0,1.86,1.76,2.22,2.46,2.36,1.24.24,2.48.5,2.48,1.81,0,.62-.55,2.62-3.41,2.62-.33,0-2.17,0-2.72-1.26.91.12,1.5-.6,1.5-1.26,0-.55-.38-.83-.88-.83-.62,0-1.34.5-1.34,1.57,0,1.36,1.36,2.31,3.41,2.31,3.86,0,4.79-2.88,4.79-3.96,0-.86-.45-1.45-.74-1.74-.64-.67-1.33-.79-2.38-1-.86-.19-1.81-.36-1.81-1.43,0-.69.57-2.15,2.67-2.15.6,0,1.79.17,2.15,1.1"/><path d="M35.56,137.16h1.71c.32,0,.54,0,.54-.37,0-.24-.22-.24-.5-.24h-1.6l.62-2.49c.02-.08.05-.17.05-.24,0-.3-.24-.54-.57-.54-.42,0-.67.29-.79.72-.12.42.1-.39-.64,2.54h-1.72c-.32,0-.54,0-.54.37,0,.23.2.23.5.23h1.6l-.99,3.97c-.1.42-.25,1.03-.25,1.24,0,.99.84,1.6,1.8,1.6,1.87,0,2.93-2.35,2.93-2.57s-.22-.22-.27-.22c-.2,0-.22.03-.35.32-.47,1.06-1.33,2-2.25,2-.35,0-.59-.22-.59-.82,0-.17.07-.52.1-.69l1.21-4.83"/></g><polygon class="cls-3" points="178.75 75 178.75 75 178.75 75 178.75 75 178.75 75 178.75 75 178.75 75 178.75 75 178.75 75 178.75 75 178.75 75 178.75 75 178.75 75 178.75 75 178.75 75 178.75 75 178.75 75 178.75 75 178.75 75 178.75 75 178.75 75 178.75 75 178.75 75 178.75 75 178.75 75 178.75 75 178.75 75 178.75 75 178.75 75 178.75 75 178.75 75 178.75 75 178.75 75 178.75 75 178.75 75 178.75 75 178.75 75 178.75 75 178.75 75 178.75 75 178.75 75 178.75 75 178.75 75 178.75 75 178.75 75 178.75 75 178.75 75 178.75 75 178.75 75 178.75 75 178.75 75 178.75 75 178.75 75 178.75 75 178.75 75 178.75 75 178.75 75 178.75 75 178.75 75 178.75 75 178.75 75 178.75 75 178.75 75 178.75 75 178.75 75 178.75 75 178.75 75 178.75 75 178.75 75 178.75 75 178.75 75 178.75 75 178.75 75 178.75 75 178.75 75 178.75 75 178.75 75 178.75 75 178.75 75 178.75 75 178.75 75 178.75 75 178.75 75 178.75 75 178.75 75 178.75 75 178.75 75 178.75 75 178.75 75"/><text class="cls-11" transform="translate(143.2 203.65)"><tspan x="0" y="0">MiniBatch</tspan></text><text class="cls-10" transform="translate(113.43 280.75)"><tspan x="0" y="0">Critic</tspan></text><polygon class="cls-3" points="193.46 75.04 193.46 75.04 193.46 75.04 193.46 75.04 193.46 75.04 193.46 75.04 193.46 75.04 193.46 75.04 193.46 75.04 193.46 75.04 193.46 75.04 193.46 75.04 193.46 75.04 193.46 75.04 193.46 75.04 193.46 75.04 193.46 75.04 193.46 75.04 193.46 75.04 193.46 75.04 193.46 75.04 193.46 75.04 193.46 75.04 193.46 75.04 193.46 75.04 193.46 75.04 193.46 75.04 193.46 75.04 193.46 75.04 193.46 75.04 193.46 75.04 193.46 75.04 193.46 75.04 193.46 75.04 193.46 75.04 193.46 75.04 193.46 75.04 193.46 75.04 193.46 75.04 193.46 75.04 193.46 75.04 193.46 75.04 193.46 75.04 193.46 75.04 193.46 75.04 193.46 75.04 193.46 75.04 193.46 75.04 193.46 75.04 193.46 75.04 193.46 75.04 193.46 75.04 193.46 75.04 193.46 75.04 193.46 75.04 193.46 75.04 193.46 75.04 193.46 75.04 193.46 75.04 193.46 75.04 193.46 75.04 193.46 75.04 193.46 75.04 193.46 75.04 193.46 75.04 193.46 75.04 193.46 75.04 193.46 75.04 193.46 75.04 193.46 75.04 193.46 75.04 193.46 75.04 193.46 75.04 193.46 75.04 193.46 75.04 193.46 75.04 193.46 75.04 193.46 75.04 193.46 75.04 193.46 75.04 193.46 75.04 193.46 75.04 193.46 75.04 193.46 75.04 193.46 75.04 193.46 75.04 193.46 75.04 193.46 75.04 193.46 75.04 193.46 75.04 193.46 75.04"/><g class="cls-15"><path d="M142.7,82.93c0-.05,0-.09-.3-.39-2.23-2.25-2.81-5.63-2.81-8.37,0-3.11.68-6.22,2.88-8.46.23-.21.23-.25.23-.3,0-.12-.07-.18-.18-.18-.18,0-1.79,1.22-2.84,3.49-.91,1.97-1.13,3.95-1.13,5.45,0,1.4.2,3.56,1.18,5.58,1.07,2.2,2.61,3.36,2.79,3.36.11,0,.18-.05.18-.18"/><path d="M150.78,71.95c-.5.02-.86.41-.86.8,0,.25.16.52.55.52s.82-.3.82-1c0-.8-.77-1.54-2.13-1.54-2.36,0-3.02,1.82-3.02,2.61,0,1.39,1.32,1.66,1.84,1.77.93.18,1.86.38,1.86,1.36,0,.47-.41,1.97-2.56,1.97-.25,0-1.63,0-2.04-.95.68.09,1.13-.45,1.13-.95,0-.41-.29-.62-.66-.62-.47,0-1,.38-1,1.18,0,1.02,1.02,1.73,2.56,1.73,2.9,0,3.59-2.16,3.59-2.97,0-.64-.34-1.09-.55-1.3-.48-.5-1-.59-1.79-.75-.64-.14-1.36-.27-1.36-1.07,0-.52.43-1.61,2-1.61.45,0,1.34.12,1.61.82"/><path d="M155.27,76.39h1.28c.24,0,.4,0,.4-.27,0-.18-.16-.18-.38-.18h-1.19l.46-1.85c.01-.06.04-.12.04-.18,0-.23-.17-.4-.43-.4-.31,0-.5.21-.59.54-.09.31.08-.29-.48,1.89h-1.28c-.24,0-.4,0-.4.28,0,.17.15.17.38.17h1.19l-.74,2.96c-.08.31-.19.76-.19.93,0,.74.63,1.19,1.34,1.19,1.39,0,2.18-1.75,2.18-1.92s-.16-.16-.2-.16c-.15,0-.16.03-.26.24-.35.79-.99,1.49-1.68,1.49-.26,0-.44-.16-.44-.61,0-.13.05-.39.08-.51l.9-3.6"/><path d="M162.12,78.62c0-1.18-.45-1.88-1.14-1.88-.59,0-.95.45-.95.95s.36.95.95.95c.21,0,.45-.07.62-.23.05-.04.07-.05.09-.05.02,0,.04.02.04.27,0,1.32-.62,2.4-1.22,2.99-.2.2-.2.23-.2.29,0,.12.09.2.18.2.2,0,1.63-1.38,1.63-3.47"/><path d="M171.99,76.51c-.09.32-.09.36-.36.66-.79.98-1.52,1.27-2.02,1.27-.9,0-1.15-.98-1.15-1.68,0-.89.57-3.09.98-3.92.55-1.05,1.36-1.72,2.07-1.72,1.16,0,1.41,1.47,1.41,1.57s-.04.21-.05.3l-.89,3.5M173.15,71.88c-.32-.66-.84-1.14-1.64-1.14-2.09,0-4.31,2.63-4.31,5.24,0,1.68.98,2.86,2.38,2.86.36,0,1.25-.07,2.32-1.34.14.75.77,1.34,1.63,1.34.62,0,1.04-.41,1.32-.98.3-.64.54-1.73.54-1.77,0-.18-.16-.18-.21-.18-.18,0-.2.07-.25.32-.3,1.16-.62,2.22-1.36,2.22-.48,0-.54-.46-.54-.82,0-.39.04-.54.23-1.32.2-.75.23-.93.39-1.61l.64-2.5c.12-.5.12-.54.12-.61,0-.3-.21-.48-.52-.48-.43,0-.7.39-.75.79Z"/><path d="M179.07,76.39h1.28c.24,0,.4,0,.4-.27,0-.18-.16-.18-.38-.18h-1.19l.46-1.85c.01-.06.04-.12.04-.18,0-.23-.17-.4-.43-.4-.31,0-.5.21-.59.54-.09.31.08-.29-.48,1.89h-1.28c-.24,0-.4,0-.4.28,0,.17.15.17.38.17h1.19l-.74,2.96c-.08.31-.19.76-.19.93,0,.74.63,1.19,1.34,1.19,1.39,0,2.18-1.75,2.18-1.92s-.16-.16-.2-.16c-.15,0-.16.03-.26.24-.35.79-.99,1.49-1.68,1.49-.26,0-.44-.16-.44-.61,0-.13.05-.39.08-.51l.9-3.6"/><path d="M185.92,78.62c0-1.18-.45-1.88-1.14-1.88-.59,0-.95.45-.95.95s.36.95.95.95c.21,0,.45-.07.62-.23.05-.04.07-.05.09-.05.02,0,.04.02.04.27,0,1.32-.62,2.4-1.22,2.99-.2.2-.2.23-.2.29,0,.12.09.2.18.2.2,0,1.63-1.38,1.63-3.47"/><path d="M191.86,77.58c-.05.27-.16.68-.16.77,0,.32.25.48.52.48.21,0,.54-.14.66-.5.04-.07.64-2.5.72-2.82.14-.59.47-1.84.57-2.32.07-.23.57-1.07,1-1.47.14-.12.66-.59,1.43-.59.46,0,.73.21.75.21-.54.09-.93.52-.93.98,0,.29.2.63.68.63s.98-.41.98-1.05-.57-1.16-1.48-1.16c-1.16,0-1.95.88-2.29,1.38-.14-.8-.79-1.38-1.63-1.38s-1.16.7-1.32,1.02c-.32.61-.55,1.68-.55,1.73,0,.18.18.18.21.18.18,0,.2-.02.3-.41.3-1.27.66-2.13,1.3-2.13.3,0,.55.14.55.82,0,.38-.05.57-.29,1.5l-1.04,4.13"/><path d="M201.47,76.39h1.28c.24,0,.4,0,.4-.27,0-.18-.16-.18-.38-.18h-1.19l.46-1.85c.01-.06.04-.12.04-.18,0-.23-.18-.4-.43-.4-.31,0-.5.21-.59.54-.09.31.08-.29-.47,1.89h-1.28c-.24,0-.4,0-.4.28,0,.17.15.17.38.17h1.19l-.74,2.96c-.08.31-.19.76-.19.93,0,.74.63,1.19,1.34,1.19,1.39,0,2.18-1.75,2.18-1.92s-.16-.16-.2-.16c-.15,0-.16.03-.26.24-.35.79-.99,1.49-1.68,1.49-.26,0-.44-.16-.44-.61,0-.13.05-.39.08-.51l.9-3.6"/><path d="M208.32,78.62c0-1.18-.45-1.88-1.14-1.88-.59,0-.95.45-.95.95s.36.95.95.95c.21,0,.45-.07.62-.23.05-.04.07-.05.09-.05.02,0,.04.02.04.27,0,1.32-.62,2.4-1.22,2.99-.2.2-.2.23-.2.29,0,.12.09.2.18.2.2,0,1.63-1.38,1.63-3.47"/><path d="M219.58,71.95c-.5.02-.86.41-.86.8,0,.25.16.52.55.52s.82-.3.82-1c0-.8-.77-1.54-2.13-1.54-2.36,0-3.02,1.82-3.02,2.61,0,1.39,1.32,1.66,1.84,1.77.93.18,1.86.38,1.86,1.36,0,.47-.41,1.97-2.56,1.97-.25,0-1.63,0-2.04-.95.68.09,1.13-.45,1.13-.95,0-.41-.29-.62-.66-.62-.47,0-1,.38-1,1.18,0,1.02,1.02,1.73,2.56,1.73,2.9,0,3.59-2.16,3.59-2.97,0-.64-.34-1.09-.55-1.3-.48-.5-1-.59-1.79-.75-.64-.14-1.36-.27-1.36-1.07,0-.52.43-1.61,2-1.61.45,0,1.34.12,1.61.82"/><path d="M224.07,76.39h1.28c.24,0,.4,0,.4-.27,0-.18-.16-.18-.38-.18h-1.19l.46-1.85c.01-.06.04-.12.04-.18,0-.23-.18-.4-.43-.4-.31,0-.5.21-.59.54-.09.31.08-.29-.47,1.89h-1.28c-.24,0-.4,0-.4.28,0,.17.15.17.38.17h1.19l-.74,2.96c-.08.31-.19.76-.19.93,0,.74.63,1.19,1.34,1.19,1.39,0,2.18-1.75,2.18-1.92s-.16-.16-.2-.16c-.15,0-.16.03-.26.24-.35.79-.99,1.49-1.68,1.49-.26,0-.44-.16-.44-.61,0-.13.05-.39.08-.51l.9-3.6"/><path d="M232.29,78.51h3.84c.16,0,.46,0,.46-.3s-.29-.31-.46-.31h-3.84v-3.85c0-.16,0-.46-.3-.46s-.31.29-.31.46v3.85h-3.85c-.16,0-.46,0-.46.3s.29.31.46.31h3.85v3.85c0,.16,0,.46.3.46s.31-.29.31-.46v-3.85"/><path d="M241.68,73.37c0-.34-.03-.35-.38-.35-.8.79-1.94.8-2.46.8v.45c.3,0,1.13,0,1.82-.35v6.39c0,.41,0,.58-1.25.58h-.48v.45c.23-.01,1.77-.05,2.23-.05.39,0,1.97.04,2.24.05v-.45h-.48c-1.25,0-1.25-.16-1.25-.58v-6.94"/><path d="M250.65,74.17c0-1.4-.2-3.56-1.18-5.58-1.07-2.2-2.61-3.36-2.79-3.36-.11,0-.18.07-.18.18,0,.05,0,.09.34.41,1.75,1.77,2.77,4.61,2.77,8.35,0,3.06-.66,6.2-2.88,8.46-.23.21-.23.25-.23.3,0,.11.07.18.18.18.18,0,1.79-1.22,2.84-3.49.91-1.97,1.13-3.95,1.13-5.45"/></g><text class="cls-10" transform="translate(112.4 369.94)"><tspan class="cls-21" x="0" y="0">T</tspan><tspan x="8.33" y="0">a</tspan><tspan class="cls-23" x="18" y="0">r</tspan><tspan x="23.49" y="0">get</tspan></text><line class="cls-6" x1="168.12" y1="327.25" x2="172.62" y2="327.25"/><line class="cls-6" x1="182.12" y1="327.25" x2="186.62" y2="327.25"/><polygon class="cls-9" points="170.11 330.15 159.27 327.25 170.11 324.34 170.11 330.15"/><line class="cls-6" x1="158.39" y1="249.86" x2="162.89" y2="249.86"/><line class="cls-5" x1="169.3" y1="249.86" x2="178.91" y2="249.86"/><line class="cls-6" x1="182.12" y1="249.86" x2="186.62" y2="249.86"/><line class="cls-2" x1="186.62" y1="327.25" x2="186.62" y2="322.75"/><line class="cls-4" x1="186.62" y1="312.98" x2="186.62" y2="259.27"/><line class="cls-2" x1="186.62" y1="254.39" x2="186.62" y2="249.89"/><line class="cls-6" x1="112.43" y1="326.65" x2="87.29" y2="326.65"/><line class="cls-6" x1="102.96" y1="251.84" x2="87.29" y2="251.84"/><polygon class="cls-9" points="100.98 248.93 111.82 251.84 100.98 254.74 100.98 248.93"/><line class="cls-2" x1="87.29" y1="326.65" x2="87.29" y2="251.84"/><polygon class="cls-3" points="94.76 289.05 94.76 289.05 94.76 289.05 94.76 289.05 94.76 289.05 94.76 289.05 94.76 289.05 94.76 289.05 94.76 289.05 94.76 289.05 94.76 289.05 94.76 289.05 94.76 289.05 94.76 289.05 94.76 289.05 94.76 289.05 94.76 289.05 94.76 289.05 94.76 289.05 94.76 289.05 94.76 289.05 94.76 289.05 94.76 289.05 94.76 289.05 94.76 289.05 94.76 289.05 94.76 289.05 94.76 289.05 94.76 289.05 94.76 289.05 94.76 289.05 94.76 289.05 94.76 289.05 94.76 289.05 94.76 289.05 94.76 289.05 94.76 289.05 94.76 289.05 94.76 289.05 94.76 289.05 94.76 289.05 94.76 289.05 94.76 289.05 94.76 289.05 94.76 289.05 94.76 289.05 94.76 289.05 94.76 289.05 94.76 289.05 94.76 289.05 94.76 289.05 94.76 289.05 94.76 289.05 94.76 289.05 94.76 289.05 94.76 289.05 94.76 289.05 94.76 289.05 94.76 289.05 94.76 289.05 94.76 289.05 94.76 289.05 94.76 289.05 94.76 289.05 94.76 289.05 94.76 289.05 94.76 289.05 94.76 289.05 94.76 289.05 94.76 289.05 94.76 289.05 94.76 289.05 94.76 289.05 94.76 289.05 94.76 289.05 94.76 289.05 94.76 289.05 94.76 289.05 94.76 289.05 94.76 289.05 94.76 289.05 94.76 289.05 94.76 289.05 94.76 289.05 94.76 289.05 94.76 289.05"/><g class="cls-18"><path d="M95.98,285.34c1.36.07,2.38.89,2.38,2.47,0,2.11-1.54,4.67-4.22,4.88l1.84-7.35M93.67,292.69c-1.07-.05-2.36-.68-2.36-2.47,0-2.15,1.54-4.65,4.2-4.88l-1.84,7.35ZM97.09,280.89s.05-.23.05-.25c0-.02,0-.18-.21-.18-.18,0-.2.05-.27.36l-1.04,4.13c-2.84.09-5.47,2.47-5.47,4.9,0,1.7,1.25,3.11,3.43,3.24-.14.55-.27,1.13-.41,1.68-.22.84-.39,1.52-.39,1.57,0,.18.12.2.21.2s.12-.02.18-.07c.04-.04.14-.46.2-.72l.68-2.66c2.88-.09,5.47-2.5,5.47-4.9,0-1.41-.95-3.06-3.43-3.24l1-4.06Z"/></g><g class="cls-17"><path d="M180.2,286.02c1.36.07,2.38.89,2.38,2.47,0,2.11-1.54,4.67-4.22,4.88l1.84-7.35M177.9,293.37c-1.07-.05-2.36-.68-2.36-2.47,0-2.15,1.54-4.65,4.2-4.88l-1.84,7.35ZM181.31,281.57s.05-.23.05-.25c0-.02,0-.18-.21-.18-.18,0-.2.05-.27.36l-1.04,4.13c-2.84.09-5.47,2.47-5.47,4.9,0,1.7,1.25,3.11,3.43,3.24-.14.55-.27,1.13-.41,1.68-.22.84-.39,1.52-.39,1.57,0,.18.12.2.21.2s.12-.02.18-.07c.04-.04.14-.46.2-.72l.68-2.66c2.88-.09,5.47-2.5,5.47-4.9,0-1.41-.95-3.06-3.43-3.24l1-4.06Z"/></g><text class="cls-10" transform="translate(191.23 284.1)"><tspan x="0" y="0">Periodic</tspan><tspan x="0" y="21.6">Copy</tspan></text></g></svg>