<?xml version="1.0" encoding="UTF-8"?><svg xmlns="http://www.w3.org/2000/svg" xmlns:xlink="http://www.w3.org/1999/xlink" viewBox="0 0 269 289.41"><defs><style>.cls-1,.cls-2,.cls-3,.cls-4{fill:none;}.cls-2{stroke-linecap:square;}.cls-2,.cls-3,.cls-5,.cls-4,.cls-6{stroke-miterlimit:10;}.cls-2,.cls-4,.cls-6{stroke:#1d1d1b;}.cls-3{opacity:0;stroke:#000;}.cls-7,.cls-8,.cls-9{fill:#1d1d1b;}.cls-5{fill:#ededed;stroke:#575756;}.cls-10{clip-path:url(#clippath-1);}.cls-11{clip-path:url(#clippath-3);}.cls-12{clip-path:url(#clippath-4);}.cls-13{clip-path:url(#clippath-2);}.cls-14,.cls-6{fill:#fff;}.cls-15{letter-spacing:-.02em;}.cls-8{font-size:18px;}.cls-8,.cls-9{font-family:HelveticaNeue, 'Helvetica Neue';}.cls-9{font-size:15px;}.cls-16{clip-path:url(#clippath);}</style><clipPath id="clippath"><rect class="cls-1" x="123.09" y="231.51" width="23" height="15"/></clipPath><clipPath id="clippath-1"><rect class="cls-1" x="125.09" y="97.26" width="19" height="17"/></clipPath><clipPath id="clippath-2"><rect class="cls-1" x="229.75" y="129" width="19" height="15"/></clipPath><clipPath id="clippath-3"><rect class="cls-1" x="21.42" y="129" width="17" height="15"/></clipPath><clipPath id="clippath-4"><rect class="cls-1" x="143.2" y="64.8" width="72" height="19"/></clipPath></defs><g id="Base"><rect class="cls-14" width="269" height="287.4" rx="12" ry="12"/></g><g id="Components"><rect class="cls-6" x="111.09" y="215.51" width="46.99" height="46.99"/><polygon class="cls-3" points="134.59 239.01 134.59 239.01 134.59 239.01 134.59 239.01 134.59 239.01 134.59 239.01 134.59 239.01 134.59 239.01 134.59 239.01 134.59 239.01 134.59 239.01 134.59 239.01 134.59 239.01 134.59 239.01 134.59 239.01 134.59 239.01 134.59 239.01 134.59 239.01 134.59 239.01 134.59 239.01 134.59 239.01 134.59 239.01 134.59 239.01 134.59 239.01 134.59 239.01 134.59 239.01 134.59 239.01 134.59 239.01 134.59 239.01 134.59 239.01 134.59 239.01 134.59 239.01 134.59 239.01 134.59 239.01 134.59 239.01 134.59 239.01 134.59 239.01 134.59 239.01 134.59 239.01 134.59 239.01 134.59 239.01 134.59 239.01 134.59 239.01 134.59 239.01 134.59 239.01 134.59 239.01 134.59 239.01 134.59 239.01 134.59 239.01 134.59 239.01 134.59 239.01 134.59 239.01 134.59 239.01 134.59 239.01 134.59 239.01 134.59 239.01 134.59 239.01 134.59 239.01 134.59 239.01 134.59 239.01 134.59 239.01 134.59 239.01 134.59 239.01 134.59 239.01 134.59 239.01 134.59 239.01 134.59 239.01 134.59 239.01 134.59 239.01 134.59 239.01 134.59 239.01 134.59 239.01 134.59 239.01 134.59 239.01 134.59 239.01 134.59 239.01 134.59 239.01 134.59 239.01 134.59 239.01 134.59 239.01 134.59 239.01 134.59 239.01 134.59 239.01 134.59 239.01 134.59 239.01 134.59 239.01 134.59 239.01"/><g class="cls-16"><path d="M129.6,233.82h2.7c-.79,3.53-1,4.55-1,6.15,0,.36,0,1,.19,1.81.24,1.05.5,1.19.86,1.19.48,0,.98-.43.98-.91,0-.14,0-.19-.14-.53-.69-1.72-.69-3.27-.69-3.93,0-1.26.17-2.55.43-3.79h2.72c.31,0,1.17,0,1.17-.81,0-.57-.5-.57-.95-.57h-7.99c-.53,0-1.43,0-2.48,1.12-.83.93-1.45,2.03-1.45,2.15,0,.02,0,.24.29.24.19,0,.24-.1.38-.29,1.17-1.84,2.55-1.84,3.03-1.84h1.36c-.76,2.88-2.05,5.77-3.05,7.94-.19.36-.19.4-.19.57,0,.45.38.64.69.64.72,0,.91-.67,1.19-1.55.33-1.1.33-1.14.64-2.34l1.33-5.27"/><path d="M143.68,240.78c-.47,1.83-.86,2.74-1.36,3.56-.52.88-1.19,1.66-1.93,1.66-.92,0-1.08-1.28-1.08-2.18,0-1.11.32-2.42.49-3.04h3.88M139.95,240.17c.86-3.63,2.3-5.23,3.29-5.23,1.08,0,1.08,1.87,1.08,2.19,0,.65-.13,1.63-.49,3.04h-3.88ZM145.58,238.12c0-1.76-.67-3.65-2.32-3.65-2.52,0-5.21,4.5-5.21,8.35,0,2,.77,3.65,2.32,3.65,2.55,0,5.21-4.59,5.21-8.36Z"/></g><ellipse class="cls-5" cx="134.59" cy="169.28" rx="44.61" ry="15.72"/><polyline class="cls-5" points="89.97 169.28 89.97 105.76 179.2 105.76 179.2 169.28"/><path class="cls-5" d="M179.2,149.49c0,8.68-19.97,15.72-44.61,15.72s-44.61-7.04-44.61-15.72"/><path class="cls-5" d="M179.2,127.62c0,8.68-19.97,15.72-44.61,15.72s-44.61-7.04-44.61-15.72"/><ellipse class="cls-5" cx="134.59" cy="105.76" rx="44.61" ry="15.72"/><g class="cls-10"><path d="M130.57,112.35c2.72-6.65,3.22-10.8,3.55-13.66,1.6,0,7.7,0,7.7,5.25,0,4.67-4.2,8.42-9.97,8.42h-1.29M130.45,113.66c5.55,0,13.4-4.24,13.4-10.75,0-2.12-1-3.46-2.17-4.2-2.05-1.33-4.24-1.33-6.51-1.33-2.05,0-3.46,0-5.46.86-3.17,1.41-3.62,3.39-3.62,3.58,0,.14.1.19.24.19.38,0,.93-.33,1.12-.45.5-.33.57-.48.72-.93.33-.95,1-1.79,4-1.93-.38,4.98-1.6,9.54-3.27,13.71-.88.31-1.45.86-1.45,1.1,0,.14.02.17.55.17h2.46Z"/></g><rect class="cls-6" x="71.8" y="11.57" width="125.57" height="46.99"/><text class="cls-8" transform="translate(84.23 40.68)"><tspan x="0" y="0">Envi</tspan><tspan class="cls-15" x="34" y="0">r</tspan><tspan x="39.67" y="0">onment</tspan></text></g><g id="DataFlow"><g class="cls-13"><path d="M236.59,137.36c-.12.43-.12.48-.48.88-1.05,1.31-2.03,1.69-2.69,1.69-1.19,0-1.53-1.31-1.53-2.24,0-1.19.76-4.12,1.31-5.22.74-1.41,1.81-2.29,2.77-2.29,1.55,0,1.88,1.95,1.88,2.1s-.05.29-.07.41l-1.19,4.67M238.14,131.19c-.43-.88-1.12-1.53-2.19-1.53-2.79,0-5.75,3.5-5.75,6.99,0,2.24,1.31,3.81,3.17,3.81.48,0,1.67-.1,3.1-1.79.19,1,1.03,1.79,2.17,1.79.83,0,1.38-.55,1.76-1.31.4-.86.72-2.31.72-2.36,0-.24-.22-.24-.29-.24-.24,0-.26.1-.33.43-.41,1.55-.83,2.96-1.81,2.96-.64,0-.72-.62-.72-1.1,0-.52.05-.71.31-1.76.26-1,.31-1.24.53-2.15l.86-3.34c.17-.67.17-.72.17-.81,0-.4-.29-.64-.69-.64-.57,0-.93.52-1,1.05Z"/><path d="M246.09,137.16h1.71c.32,0,.54,0,.54-.37,0-.24-.22-.24-.5-.24h-1.6l.62-2.49c.02-.08.05-.17.05-.24,0-.3-.24-.54-.57-.54-.42,0-.67.29-.79.72-.12.42.1-.39-.64,2.54h-1.72c-.32,0-.54,0-.54.37,0,.23.2.23.5.23h1.6l-.99,3.97c-.1.42-.25,1.03-.25,1.24,0,.99.84,1.6,1.8,1.6,1.87,0,2.92-2.35,2.92-2.57s-.22-.22-.27-.22c-.2,0-.22.03-.35.32-.47,1.06-1.33,2-2.25,2-.35,0-.59-.22-.59-.82,0-.17.07-.52.1-.69l1.21-4.83"/></g><line class="cls-4" x1="158.39" y1="238.62" x2="254.39" y2="238.62"/><line class="cls-4" x1="206.23" y1="34.29" x2="253.83" y2="34.29"/><polygon class="cls-7" points="208.21 37.19 197.37 34.29 208.21 31.38 208.21 37.19"/><line class="cls-2" x1="253.83" y1="238.23" x2="253.83" y2="34.29"/><line class="cls-4" x1="102.23" y1="238.23" x2="15.09" y2="238.23"/><polygon class="cls-7" points="100.25 235.32 111.09 238.23 100.25 241.13 100.25 235.32"/><line class="cls-4" x1="71.55" y1="34.29" x2="15.09" y2="34.29"/><line class="cls-2" x1="15.09" y1="238.23" x2="15.09" y2="34.29"/><line class="cls-2" x1="134.74" y1="81.26" x2="134.74" y2="58.56"/><polygon class="cls-7" points="137.64 79.27 134.74 90.11 131.83 79.27 137.64 79.27"/><line class="cls-2" x1="134.59" y1="206.65" x2="134.59" y2="185.87"/><polygon class="cls-7" points="137.49 204.67 134.59 215.51 131.68 204.67 137.49 204.67"/><g class="cls-11"><path d="M29.54,131.28c-.67.02-1.14.55-1.14,1.07,0,.33.21.69.74.69s1.1-.41,1.1-1.34c0-1.07-1.02-2.05-2.84-2.05-3.15,0-4.03,2.43-4.03,3.48,0,1.86,1.76,2.22,2.46,2.36,1.24.24,2.48.5,2.48,1.81,0,.62-.55,2.62-3.41,2.62-.33,0-2.17,0-2.72-1.26.91.12,1.5-.6,1.5-1.26,0-.55-.38-.83-.88-.83-.62,0-1.34.5-1.34,1.57,0,1.36,1.36,2.31,3.41,2.31,3.86,0,4.79-2.88,4.79-3.96,0-.86-.45-1.45-.74-1.74-.64-.67-1.33-.79-2.38-1-.86-.19-1.81-.36-1.81-1.43,0-.69.57-2.15,2.67-2.15.6,0,1.79.17,2.15,1.1"/><path d="M35.56,137.16h1.71c.32,0,.54,0,.54-.37,0-.24-.22-.24-.5-.24h-1.6l.62-2.49c.02-.08.05-.17.05-.24,0-.3-.24-.54-.57-.54-.42,0-.67.29-.79.72-.12.42.1-.39-.64,2.54h-1.72c-.32,0-.54,0-.54.37,0,.23.2.23.5.23h1.6l-.99,3.97c-.1.42-.25,1.03-.25,1.24,0,.99.84,1.6,1.8,1.6,1.87,0,2.93-2.35,2.93-2.57s-.22-.22-.27-.22c-.2,0-.22.03-.35.32-.47,1.06-1.33,2-2.25,2-.35,0-.59-.22-.59-.82,0-.17.07-.52.1-.69l1.21-4.83"/></g><polygon class="cls-3" points="178.75 75 178.75 75 178.75 75 178.75 75 178.75 75 178.75 75 178.75 75 178.75 75 178.75 75 178.75 75 178.75 75 178.75 75 178.75 75 178.75 75 178.75 75 178.75 75 178.75 75 178.75 75 178.75 75 178.75 75 178.75 75 178.75 75 178.75 75 178.75 75 178.75 75 178.75 75 178.75 75 178.75 75 178.75 75 178.75 75 178.75 75 178.75 75 178.75 75 178.75 75 178.75 75 178.75 75 178.75 75 178.75 75 178.75 75 178.75 75 178.75 75 178.75 75 178.75 75 178.75 75 178.75 75 178.75 75 178.75 75 178.75 75 178.75 75 178.75 75 178.75 75 178.75 75 178.75 75 178.75 75 178.75 75 178.75 75 178.75 75 178.75 75 178.75 75 178.75 75 178.75 75 178.75 75 178.75 75 178.75 75 178.75 75 178.75 75 178.75 75 178.75 75 178.75 75 178.75 75 178.75 75 178.75 75 178.75 75 178.75 75 178.75 75 178.75 75 178.75 75 178.75 75 178.75 75 178.75 75 178.75 75 178.75 75 178.75 75 178.75 75 178.75 75 178.75 75 178.75 75 178.75 75 178.75 75"/><g class="cls-12"><path d="M147.82,82.89c0-.05,0-.09-.3-.39-2.23-2.25-2.81-5.63-2.81-8.37,0-3.11.68-6.22,2.88-8.46.23-.21.23-.25.23-.3,0-.12-.07-.18-.18-.18-.18,0-1.79,1.22-2.84,3.49-.91,1.97-1.13,3.95-1.13,5.45,0,1.4.2,3.56,1.18,5.58,1.07,2.2,2.61,3.36,2.79,3.36.11,0,.18-.05.18-.18"/><path d="M155.79,71.92c-.5.02-.86.41-.86.8,0,.25.16.52.55.52s.82-.3.82-1c0-.8-.77-1.54-2.13-1.54-2.36,0-3.02,1.82-3.02,2.61,0,1.39,1.32,1.66,1.84,1.77.93.18,1.86.38,1.86,1.36,0,.47-.41,1.97-2.56,1.97-.25,0-1.63,0-2.04-.95.68.09,1.13-.45,1.13-.95,0-.41-.29-.62-.66-.62-.47,0-1,.38-1,1.18,0,1.02,1.02,1.73,2.56,1.73,2.9,0,3.59-2.16,3.59-2.97,0-.64-.34-1.09-.55-1.3-.48-.5-1-.59-1.79-.75-.64-.14-1.36-.27-1.36-1.07,0-.52.43-1.61,2-1.61.45,0,1.34.12,1.61.82"/><path d="M160.28,76.35h1.28c.24,0,.4,0,.4-.27,0-.18-.16-.18-.38-.18h-1.19l.46-1.85c.01-.06.04-.12.04-.18,0-.23-.17-.4-.43-.4-.31,0-.5.21-.59.54-.09.31.08-.29-.48,1.89h-1.28c-.24,0-.4,0-.4.28,0,.17.15.17.38.17h1.19l-.74,2.96c-.07.31-.19.76-.19.93,0,.74.63,1.19,1.34,1.19,1.39,0,2.18-1.75,2.18-1.92s-.16-.16-.2-.16c-.15,0-.16.03-.26.24-.35.79-.99,1.49-1.68,1.49-.26,0-.44-.16-.44-.61,0-.13.05-.39.08-.51l.9-3.6"/><path d="M167.23,78.59c0-1.18-.45-1.88-1.14-1.88-.59,0-.95.45-.95.95s.36.95.95.95c.21,0,.45-.07.62-.23.05-.04.07-.05.09-.05.02,0,.04.02.04.27,0,1.32-.62,2.4-1.22,2.99-.2.2-.2.23-.2.29,0,.12.09.2.18.2.2,0,1.63-1.38,1.63-3.47"/><path d="M177.01,76.47c-.09.32-.09.36-.36.66-.79.98-1.52,1.27-2.02,1.27-.9,0-1.15-.98-1.15-1.68,0-.89.57-3.09.98-3.92.55-1.05,1.36-1.72,2.07-1.72,1.16,0,1.41,1.47,1.41,1.57s-.04.21-.05.3l-.89,3.5M178.17,71.84c-.32-.66-.84-1.14-1.64-1.14-2.09,0-4.31,2.63-4.31,5.24,0,1.68.98,2.86,2.38,2.86.36,0,1.25-.07,2.32-1.34.14.75.77,1.34,1.63,1.34.62,0,1.04-.41,1.32-.98.3-.64.54-1.73.54-1.77,0-.18-.16-.18-.21-.18-.18,0-.2.07-.25.32-.3,1.16-.62,2.22-1.36,2.22-.48,0-.54-.46-.54-.82,0-.39.04-.54.23-1.32.2-.75.23-.93.39-1.61l.64-2.5c.12-.5.12-.54.12-.61,0-.3-.21-.48-.52-.48-.43,0-.7.39-.75.79Z"/><path d="M184.08,76.35h1.28c.24,0,.4,0,.4-.27,0-.18-.16-.18-.38-.18h-1.19l.46-1.85c.01-.06.04-.12.04-.18,0-.23-.17-.4-.43-.4-.31,0-.5.21-.59.54-.09.31.08-.29-.48,1.89h-1.28c-.24,0-.4,0-.4.28,0,.17.15.17.38.17h1.19l-.74,2.96c-.08.31-.19.76-.19.93,0,.74.63,1.19,1.34,1.19,1.39,0,2.18-1.75,2.18-1.92s-.16-.16-.2-.16c-.15,0-.16.03-.26.24-.35.79-.99,1.49-1.68,1.49-.26,0-.44-.16-.44-.61,0-.13.05-.39.08-.51l.9-3.6"/><path d="M190.93,78.59c0-1.18-.45-1.88-1.14-1.88-.59,0-.95.45-.95.95s.36.95.95.95c.21,0,.45-.07.62-.23.05-.04.07-.05.09-.05.02,0,.04.02.04.27,0,1.32-.62,2.4-1.22,2.99-.2.2-.2.23-.2.29,0,.12.09.2.18.2.2,0,1.63-1.38,1.63-3.47"/><path d="M196.87,77.55c-.05.27-.16.68-.16.77,0,.32.25.48.52.48.21,0,.54-.14.66-.5.04-.07.64-2.5.72-2.82.14-.59.47-1.84.57-2.32.07-.23.57-1.07,1-1.47.14-.12.66-.59,1.43-.59.46,0,.73.21.75.21-.54.09-.93.52-.93.98,0,.29.2.63.68.63s.98-.41.98-1.05-.57-1.16-1.48-1.16c-1.16,0-1.95.88-2.29,1.38-.14-.8-.79-1.38-1.63-1.38s-1.16.7-1.32,1.02c-.32.61-.55,1.68-.55,1.73,0,.18.18.18.21.18.18,0,.2-.02.3-.41.3-1.27.66-2.13,1.3-2.13.3,0,.55.14.55.82,0,.38-.05.57-.29,1.5l-1.04,4.13"/><path d="M206.48,76.35h1.28c.24,0,.4,0,.4-.27,0-.18-.16-.18-.38-.18h-1.19l.46-1.85c.01-.06.04-.12.04-.18,0-.23-.18-.4-.43-.4-.31,0-.5.21-.59.54-.09.31.08-.29-.47,1.89h-1.28c-.24,0-.4,0-.4.28,0,.17.15.17.38.17h1.19l-.74,2.96c-.08.31-.19.76-.19.93,0,.74.63,1.19,1.34,1.19,1.39,0,2.18-1.75,2.18-1.92s-.16-.16-.2-.16c-.15,0-.16.03-.26.24-.35.79-.99,1.49-1.68,1.49-.26,0-.44-.16-.44-.61,0-.13.05-.39.08-.51l.9-3.6"/><path d="M214.86,74.13c0-1.4-.2-3.56-1.18-5.58-1.07-2.2-2.61-3.36-2.79-3.36-.11,0-.18.07-.18.18,0,.05,0,.09.34.41,1.75,1.77,2.77,4.61,2.77,8.35,0,3.06-.66,6.2-2.88,8.46-.23.21-.23.25-.23.3,0,.11.07.18.18.18.18,0,1.79-1.22,2.84-3.49.91-1.97,1.13-3.95,1.13-5.45"/></g><text class="cls-9" transform="translate(143.2 203.65)"><tspan x="0" y="0">MiniBatch</tspan></text><text class="cls-8" transform="translate(110.26 280.75)"><tspan x="0" y="0">Policy</tspan></text></g></svg>